<?xml version="1.0" encoding="iso-8859-1"?>
<!-- Generator: Adobe Illustrator 16.0.0, SVG Export Plug-In . SVG Version: 6.00 Build 0)  -->
<!DOCTYPE svg PUBLIC "-//W3C//DTD SVG 1.1//EN" "http://www.w3.org/Graphics/SVG/1.1/DTD/svg11.dtd">
<svg xmlns="http://www.w3.org/2000/svg" xmlns:xlink="http://www.w3.org/1999/xlink" version="1.1" id="Capa_1" x="0px" y="0px" width="512px" height="512px" viewBox="0 0 37.015 37.015" style="enable-background:new 0 0 37.015 37.015;" xml:space="preserve">
<g>
	<path d="M24.679,18.985c-0.001-0.072-0.003-0.147-0.007-0.231c-0.001-0.038-0.003-0.073-0.005-0.113   c-0.005-0.093-0.009-0.186-0.015-0.282c-0.002-0.032-0.003-0.062-0.005-0.093c-0.027-0.466-0.06-0.907-0.06-0.907   s0.278-0.475,0.209-0.938c-0.041-0.268-0.942-3.221-1.623-5.765c-0.499-1.862-0.749-3.505-1.108-3.713   c-0.162-0.093-0.36-0.202-0.57-0.315c0,0,0,0-0.001-0.001c-0.025-0.014-0.055-0.029-0.082-0.043   c-0.083-0.044-0.165-0.088-0.25-0.133C21.105,6.42,21.049,6.39,20.991,6.36c-0.088-0.046-0.174-0.091-0.261-0.136   c-0.044-0.023-0.086-0.045-0.131-0.067C20.494,6.102,20.393,6.05,20.295,6c-0.009-0.004-0.016-0.007-0.022-0.011   c-0.47-0.241-0.833-0.423-0.833-0.423L19.212,4.96c0,0,0.192-0.421,0.219-0.983c0.026-0.563,0.044-1.045,0.044-1.045   c1.177,0,2.872-0.606,2.845-1.343c-0.025-0.738-2.591-0.79-2.591-0.79l-0.114-0.492c0,0-0.08-0.307-1.396-0.307   c-1.317,0-1.484,0.307-1.484,0.307l-0.097,0.474c0,0-2.529,0.299-2.52,0.975c0.008,0.676,1.783,1.176,2.757,1.176   c0,0,0.062,0.692,0.097,1.089C17.008,4.419,17.28,4.96,17.28,4.96l-0.149,0.606c0,0-2.076,0.757-2.915,1.063   c-0.38,0.138-0.501,1.846-0.844,3.747c-0.416,2.305-1.023,4.893-1.115,5.315c-0.167,0.771,0.133,1.261,0.133,1.261   s-0.071,0.902-0.079,0.996c-0.002,0.026,0.01,0.036,0.028,0.036c0.045,0,0.129-0.061,0.129-0.061s-0.06,1.034-0.076,1.326   c-0.017,0.293,0.954,1.569,1.234,1.692c0.029,0.014,0.052,0.019,0.072,0.019c0.002,0,0.001-0.003,0.003-0.003   c0.038-0.002,0.058-0.026,0.07-0.061c0.002-0.007,0.004-0.012,0.006-0.018c0.008-0.038,0.008-0.083,0.003-0.131   c-0.001-0.01-0.002-0.016-0.003-0.025c-0.007-0.048-0.017-0.094-0.025-0.13c-0.002-0.01-0.002-0.009-0.005-0.017   c-0.008-0.031-0.015-0.055-0.015-0.055s0.023,0.002,0.052,0.004c0.011,0.002,0.011,0.002,0.022,0.002   c0.004,0,0.007-0.002,0.01-0.002c0.021,0,0.038-0.006,0.057-0.015c0.009-0.004,0.019-0.007,0.025-0.014   c0.02-0.019,0.029-0.048,0.009-0.099c-0.07-0.177-0.384-0.541-0.474-0.65c-0.091-0.109,0.139-1.004,0.139-1.004   s0.333,0.97,0.405,1.18c0.017,0.049,0.042,0.07,0.071,0.07c0.001,0,0.002-0.002,0.004-0.002c0.005,0,0.011-0.006,0.016-0.008   c0.024-0.009,0.048-0.025,0.072-0.057c0.009-0.011,0.016-0.023,0.025-0.037c0.02-0.031,0.037-0.068,0.052-0.111   c0.006-0.019,0.013-0.033,0.018-0.053c0.017-0.064,0.028-0.134,0.024-0.207c-0.018-0.315-0.018-1.062-0.018-1.062l-0.264-0.565   l-0.035-0.849c0,0,0.667-0.211,1.019-0.632c0.351-0.422,0.597-5.164,0.597-5.164s0.007,0.026,0.015,0.056   c0.002,0.007,0.005,0.017,0.007,0.025c0.01,0.036,0.024,0.087,0.039,0.146c0.004,0.014,0.008,0.029,0.012,0.045   c0.019,0.071,0.04,0.152,0.062,0.242c0.001,0.007,0.003,0.012,0.005,0.019c0.024,0.098,0.05,0.205,0.076,0.316   c0.004,0.016,0.007,0.032,0.011,0.048c0.021,0.092,0.042,0.188,0.063,0.283c0.006,0.029,0.012,0.058,0.018,0.086   c0.02,0.092,0.037,0.183,0.053,0.273c0.004,0.023,0.009,0.047,0.013,0.07c0.039,0.231,0.066,0.445,0.066,0.604   c0,0.65-0.755,3.524-0.79,3.688c-0.035,0.164,0.345,0.312,0.345,0.312s-0.583,2.995-0.647,3.325s0.572,0.546,0.572,0.546   s0.025,2.719,0.03,3.308c0.005,0.59-0.511,1.606-0.582,2.414c-0.07,0.809-0.07,6.48-0.07,6.48s-0.208,0.166-0.333,0.264   s0,0.333,0,0.333l0.21,0.104l-0.017,0.229l-0.563,0.896c0,0-0.321,0.439-0.527,0.721c-0.206,0.281-0.246,0.896,0.211,0.931   c0.039,0.003,0.081,0.004,0.126,0.004c0.012,0,0.027-0.001,0.04-0.001c0.031,0,0.063-0.002,0.096-0.003   c0.041-0.002,0.08-0.004,0.122-0.007c0.035-0.002,0.069-0.005,0.105-0.009c0.044-0.005,0.087-0.009,0.131-0.013   c0.036-0.004,0.071-0.008,0.107-0.013c0.045-0.005,0.088-0.011,0.133-0.017c0.033-0.004,0.066-0.01,0.099-0.014   c0.045-0.007,0.087-0.013,0.129-0.02c0.027-0.004,0.054-0.008,0.079-0.012c0.041-0.006,0.075-0.012,0.109-0.019   c0.022-0.004,0.044-0.007,0.063-0.01c0.036-0.006,0.062-0.011,0.086-0.017c0.008,0,0.018-0.002,0.025-0.004   c0.026-0.004,0.042-0.006,0.042-0.006s0.457-0.089,0.562-0.404s0.264-0.932,0.264-0.932s0.158,0,0.263,0s0.31-0.482,0.31-0.482   l0.042-0.202c0,0,0.021,0.003,0.055,0.006c0.013,0.001,0.027,0.001,0.044,0.002c0.025,0.001,0.049,0.003,0.079,0.003   c0.002,0,0.004,0,0.007,0c0.038,0,0.072-0.006,0.109-0.011c0.018-0.002,0.037-0.002,0.054-0.007   c0.049-0.012,0.091-0.03,0.109-0.063c0.07-0.123,0.492-0.614,0.492-0.966s0.51-7.376,0.51-7.376l0.353-4.329   c0,0-0.048,6.016-0.055,6.84c-0.006,0.825,0.42,4.061,0.42,4.061s-0.121,1.19,0.16,1.524c0.282,0.334,1.598,0.562,1.598,0.562   s0.809,0.597,1.605,0.633c0.054,0.002,0.109,0.004,0.163,0.004c0.027,0,0.053-0.002,0.08-0.003c0.04,0,0.079-0.002,0.119-0.004   c0.056-0.003,0.109-0.006,0.165-0.012c0.037-0.002,0.073-0.006,0.11-0.01c0.056-0.006,0.107-0.013,0.159-0.02   c0.033-0.004,0.065-0.01,0.097-0.014c0.053-0.008,0.101-0.018,0.148-0.025c0.027-0.005,0.055-0.01,0.081-0.016   c0.047-0.01,0.089-0.019,0.13-0.027c0.021-0.005,0.043-0.01,0.062-0.014c0.04-0.01,0.071-0.018,0.104-0.025   c0.015-0.004,0.032-0.008,0.045-0.012c0.032-0.008,0.055-0.014,0.075-0.021c0.006-0.002,0.014-0.004,0.019-0.005   c0.021-0.006,0.034-0.01,0.034-0.01s0.211-0.352,0.042-0.421s-0.902-0.4-1.299-0.579c-0.396-0.178-0.743-0.598-0.921-0.792   s0.299-0.755,0.227-1.093c-0.071-0.336-0.524-0.56-0.531-0.84c-0.008-0.281,0.357-0.86,0.333-1.193s-0.521-1.915-0.115-3.741   c0.169-0.765,0.216-8.302,0.216-8.302s-0.146-2.481-0.305-3.354c-0.158-0.873-0.456-1.428-0.474-1.94   c-0.004-0.124,0.007-0.291,0.023-0.472c0.002-0.027,0.006-0.055,0.008-0.082c0.006-0.06,0.013-0.12,0.021-0.18   c0.003-0.034,0.008-0.067,0.012-0.101c0.007-0.057,0.015-0.112,0.021-0.168c0.006-0.031,0.01-0.063,0.015-0.094   c0.011-0.077,0.021-0.152,0.032-0.221c0.004-0.024,0.007-0.045,0.011-0.068c0.008-0.05,0.016-0.099,0.021-0.14   c0.003-0.021,0.006-0.041,0.011-0.059c0.006-0.037,0.012-0.074,0.016-0.099c0.001-0.006,0.002-0.013,0.003-0.018   c0.005-0.027,0.008-0.047,0.008-0.047s0.534,4.544,0.974,5.101c0.429,0.545,0.928,0.551,0.949,0.551l0,0   c0,0-0.142,0.535-0.194,0.737c-0.014,0.047-0.001,0.071,0.018,0.086c0.007,0.005,0.016,0.006,0.025,0.009   c0.01,0.002,0.017,0.01,0.028,0.01c0.009,0,0.018-0.004,0.026-0.005c0.03-0.003,0.056-0.008,0.084-0.018   c0.014-0.004,0.021-0.005,0.032-0.009c0.032-0.011,0.056-0.022,0.056-0.022s-0.164,0.655-0.225,0.896   c-0.061,0.24,0.112,0.703,0.237,0.756c0.013,0.005,0.022,0.007,0.033,0.007c0.013,0,0.021-0.01,0.032-0.015   c0.01-0.004,0.021-0.006,0.029-0.014c0.015-0.014,0.026-0.028,0.04-0.045c0.006-0.011,0.014-0.018,0.02-0.027   c0.012-0.021,0.021-0.04,0.028-0.059c0.003-0.008,0.006-0.014,0.009-0.02c0.008-0.021,0.013-0.035,0.013-0.035l0.267-0.912   c0,0,0.196,0.803,0.112,0.973c-0.083,0.17-0.951,0.778-0.957,0.955c-0.001,0.039,0.021,0.055,0.05,0.064   c0.006,0.002,0.012,0.004,0.02,0.005C22.99,20.467,22.993,20.47,23,20.47c0.027,0,0.06-0.006,0.091-0.015   c0.007-0.002,0.012-0.004,0.02-0.006c0.036-0.012,0.069-0.023,0.098-0.036c0.014-0.007,0.017-0.007,0.026-0.013   c0.023-0.01,0.04-0.019,0.04-0.019s-0.195,0.31-0.124,0.417c0.009,0.014,0.023,0.02,0.042,0.02c0.013,0,0.037-0.015,0.054-0.02   c0.021-0.006,0.038-0.011,0.062-0.021c0.039-0.018,0.08-0.041,0.125-0.069c0.026-0.017,0.049-0.029,0.076-0.048   c0.056-0.037,0.109-0.075,0.165-0.116c0.021-0.015,0.04-0.028,0.06-0.043c0.069-0.052,0.133-0.101,0.186-0.138   c0.225-0.168,0.723-0.758,0.758-1.074c0.005-0.045,0.006-0.122,0.006-0.213C24.68,19.049,24.679,19.016,24.679,18.985z    M17.216,5.795c0.077-0.028,0.134-0.092,0.154-0.171l0.056-0.225c0.125,0.212,0.359,0.421,0.796,0.421   c0.493,0,0.74-0.265,0.866-0.501l0.125,0.333c0.021,0.057,0.063,0.104,0.12,0.132c0.006,0.003,0.237,0.12,0.565,0.286   c-0.166,0.659-0.736,1.134-1.054,1.453c-0.356,0.359-0.421,0.966-0.421,0.966s-0.193-0.772-0.421-1   c-0.207-0.207-0.772-0.865-1.049-1.597L17.216,5.795z M15.316,11.233c-0.116,2.243-0.352,4.735-0.541,5.02   c-0.3,0.359-0.898,0.554-0.904,0.556c-0.105,0.034-0.175,0.134-0.171,0.244l0.035,0.844l-1.026,0.019   c-0.004-0.082-0.059-0.151-0.132-0.194l0.06-0.753c0.004-0.05-0.009-0.102-0.034-0.146c-0.01-0.017-0.245-0.427-0.104-1.083   l0.084-0.376c0.205-0.904,0.685-3.02,1.032-4.946c0.096-0.532,0.174-1.048,0.246-1.521c0.13-0.851,0.291-1.911,0.44-2.04   l1.066-0.389c0.249,0.395,0.894,1.392-0.01,4.237c0.049,0.131,0.088,0.236,0.122,0.324C15.39,11.064,15.321,11.135,15.316,11.233z    M21.307,15.229c0.001,0.005,0.002,0.013,0.003,0.019c-0.438,0.25-1.549,0.886-3.871,0.442c-0.246,3.126,0.808,5.128,0.106,7.166   c-0.495-0.442-1.389-1.064-1.819-1.357l-0.001-0.169c-0.001-0.104-0.067-0.196-0.166-0.229c-0.202-0.068-0.402-0.209-0.411-0.267   l0.647-3.327c0.022-0.116-0.041-0.232-0.151-0.275c-0.057-0.022-0.135-0.064-0.179-0.097c0.012-0.047,0.029-0.117,0.051-0.203   c0.34-1.349,0.729-2.963,0.729-3.472c0-0.102-0.012-0.228-0.029-0.361c0.511,0.235,1.614,0.461,2.185-0.114   c0.945,0.563,1.966,0.278,2.435,0.024c-0.006,0.091-0.008,0.174-0.006,0.245c0.011,0.304,0.104,0.605,0.212,0.955   C21.133,14.502,21.236,14.833,21.307,15.229z M23.432,17.748c-0.035-0.029-0.077-0.047-0.121-0.054   c0.158-0.599,0.151-0.608,0.084-0.695c-0.045-0.059-0.118-0.095-0.193-0.096c-0.016,0-0.405-0.011-0.758-0.458   c-0.272-0.347-0.703-3.12-0.921-4.978c-0.012-0.101-0.09-0.17-0.186-0.196c0.029-0.117,0.068-0.271,0.115-0.458   c-0.65-2.609-0.233-3.569-0.026-3.947c0.188,0.103,0.37,0.202,0.517,0.287c0.168,0.124,0.396,1.092,0.597,1.947   c0.116,0.495,0.246,1.047,0.399,1.618c0.377,1.41,0.824,2.952,1.15,4.078c0.231,0.801,0.45,1.557,0.467,1.661   c0.055,0.369-0.176,0.774-0.179,0.778c-0.025,0.043-0.036,0.093-0.033,0.142c0.011,0.153,0.023,0.335,0.036,0.523l-0.871-0.01   C23.5,17.837,23.476,17.785,23.432,17.748z" fill="#259bb9"/>
</g>
<g>
</g>
<g>
</g>
<g>
</g>
<g>
</g>
<g>
</g>
<g>
</g>
<g>
</g>
<g>
</g>
<g>
</g>
<g>
</g>
<g>
</g>
<g>
</g>
<g>
</g>
<g>
</g>
<g>
</g>
</svg>
