<svg xmlns="http://www.w3.org/2000/svg" viewBox="0 0 496.899 496.899"><g fill="#FFF"><path d="M373.475 270.019l-69.102-151.396c-6.287-13.842-20.825-12.386-36.027-12.386V89.935c14.168-8.461 23.756-23.777 23.756-41.475 0-26.772-21.699-48.46-48.479-48.46-26.766 0-48.449 21.688-48.449 48.46 0 17.697 9.588 33.014 23.738 41.475v16.302c-12.949 0-26.987-1.188-34.211 9.175l-9.568 13.787c14.315-5.475 4.471-1.709 43.779-16.718l.912-.349c14.729-5.618 30.676 1.983 36.121 16.149l27.344 71.631c5.654 14.735-2.025 30.748-16.137 36.148l-26.51 10.101c-6.459 10.712-18.151 17.479-30.824 17.479-5.83 0-18.688-3.229-24.92-4.591l-.068 212.981c0 13.737 11.141 24.87 24.871 24.87 13.731 0 24.871-11.133 24.871-24.87v-65.307h18.133v65.307c0 13.737 11.139 24.87 24.871 24.87 13.731 0 24.869-11.133 24.869-24.87 0-133.004-.066-217.285-.066-257.974l33.404 73.176c4.66 10.271 16.872 15.049 27.463 10.249 10.406-4.753 14.989-17.05 10.229-27.462zm-139.5-163.49V87.878h19.328v18.651h-19.328z"/><path d="M177.159 183.406l35.554 7.771-2.674-6.971-6.828 2.608a7.86 7.86 0 0 1-2.82.517 7.882 7.882 0 0 1-7.363-5.083 7.885 7.885 0 0 1 4.549-10.184l6.831-2.609-3.334-8.752c-1.556-4.07.481-8.637 4.546-10.19 4.051-1.546 8.633.493 10.184 4.556l3.355 8.76 6.816-2.599c4.046-1.562 8.626.487 10.185 4.566a7.892 7.892 0 0 1-4.551 10.185l-6.816 2.598 7.771 20.379c.109.283.061.566.146.849 7.883 6.55 12.76 16.192 13.049 26.66l15.479-5.901c5.914-2.261 8.808-8.907 6.572-14.711l-27.359-71.652c-2.32-6.031-8.99-8.769-14.702-6.583l-50.356 19.228c-5.875 2.241-8.826 8.824-6.572 14.701l8.338 21.857z"/><path d="M208.637 248.152c9.531 0 18.113-6.612 20.221-16.305 2.443-11.179-4.63-22.23-15.82-24.674l-43.201-9.447-5.404-1.183-11.09-29.07c-.616-1.614-1.035-3.264-1.361-4.923l-26.748 38.543c-8.615 12.475-1.215 29.054 12.61 32.065l19.403 4.243c3.575.785 47.806 10.751 51.39 10.751z"/></g></svg>