<svg xmlns="http://www.w3.org/2000/svg" width="512" height="512" viewBox="0 0 37.015 37.015"><path d="M24.679 18.985a6.746 6.746 0 0 0-.007-.231l-.005-.113-.015-.282-.005-.093c-.027-.466-.06-.907-.06-.907s.278-.475.209-.938c-.041-.268-.942-3.221-1.623-5.765-.499-1.862-.749-3.505-1.108-3.713-.162-.093-.36-.202-.57-.315l-.001-.001-.082-.043-.25-.133a9.247 9.247 0 0 0-.171-.091l-.261-.136-.131-.067A31.702 31.702 0 0 0 20.295 6l-.022-.011c-.47-.241-.833-.423-.833-.423l-.228-.606s.192-.421.219-.983c.026-.563.044-1.045.044-1.045 1.177 0 2.872-.606 2.845-1.343-.025-.738-2.591-.79-2.591-.79l-.114-.492S19.535 0 18.219 0c-1.317 0-1.484.307-1.484.307l-.097.474s-2.529.299-2.52.975c.008.676 1.783 1.176 2.757 1.176l.097 1.089c.036.398.308.939.308.939l-.149.606-2.915 1.063c-.38.138-.501 1.846-.844 3.747-.416 2.305-1.023 4.893-1.115 5.315-.167.771.133 1.261.133 1.261l-.079.996c-.002.026.01.036.028.036.045 0 .129-.061.129-.061l-.076 1.326c-.017.293.954 1.569 1.234 1.692a.164.164 0 0 0 .072.019c.002 0 .001-.003.003-.003.038-.002.058-.026.07-.061l.006-.018a.434.434 0 0 0 .003-.131l-.003-.025a1.791 1.791 0 0 0-.025-.13l-.005-.017-.015-.055a3.252 3.252 0 0 0 .074.006l.01-.002a.127.127 0 0 0 .057-.015c.009-.004.019-.007.025-.014.02-.019.029-.048.009-.099-.07-.177-.384-.541-.474-.65-.091-.109.139-1.004.139-1.004l.405 1.18c.017.049.042.07.071.07l.004-.002c.005 0 .011-.006.016-.008a.157.157 0 0 0 .072-.057c.009-.011.016-.023.025-.037a.521.521 0 0 0 .052-.111c.006-.019.013-.033.018-.053a.665.665 0 0 0 .024-.207c-.018-.315-.018-1.062-.018-1.062l-.264-.565-.035-.849s.667-.211 1.019-.632c.351-.422.597-5.164.597-5.164l.015.056.007.025a6.795 6.795 0 0 1 .051.191c.019.071.04.152.062.242l.005.019.076.316.011.048.063.283.018.086c.02.092.037.183.053.273l.013.07c.039.231.066.445.066.604 0 .65-.755 3.524-.79 3.688-.035.164.345.312.345.312l-.647 3.325c-.064.33.572.546.572.546l.03 3.308c.005.59-.511 1.606-.582 2.414-.07.809-.07 6.48-.07 6.48l-.333.264c-.125.098 0 .333 0 .333l.21.104-.017.229-.563.896-.527.721c-.206.281-.246.896.211.931.039.003.081.004.126.004l.04-.001.096-.003a5.29 5.29 0 0 0 .465-.042l.133-.017.099-.014.129-.02a7.084 7.084 0 0 0 .188-.031l.063-.01a1.09 1.09 0 0 0 .111-.021l.042-.006s.457-.089.562-.404.264-.932.264-.932h.263c.105 0 .31-.482.31-.482l.042-.202.055.006.044.002c.025.001.049.003.079.003h.007c.038 0 .072-.006.109-.011.018-.002.037-.002.054-.007.049-.012.091-.03.109-.063.07-.123.492-.614.492-.966s.51-7.376.51-7.376l.353-4.329-.055 6.84c-.006.825.42 4.061.42 4.061s-.121 1.19.16 1.524c.282.334 1.598.562 1.598.562s.809.597 1.605.633c.054.002.109.004.163.004.027 0 .053-.002.08-.003.04 0 .079-.002.119-.004a3.05 3.05 0 0 0 .165-.012c.037-.002.073-.006.11-.01.056-.006.107-.013.159-.02l.097-.014.148-.025.081-.016.13-.027.062-.014.104-.025.045-.012a.879.879 0 0 0 .094-.026l.034-.01s.211-.352.042-.421-.902-.4-1.299-.579c-.396-.178-.743-.598-.921-.792s.299-.755.227-1.093c-.071-.336-.524-.56-.531-.84-.008-.281.357-.86.333-1.193s-.521-1.915-.115-3.741c.169-.765.216-8.302.216-8.302s-.146-2.481-.305-3.354c-.158-.873-.456-1.428-.474-1.94a4.294 4.294 0 0 1 .023-.472l.008-.082.021-.18c.003-.034.008-.067.012-.101l.021-.168c.006-.031.01-.063.015-.094l.032-.221.011-.068c.008-.05.016-.099.021-.14a.477.477 0 0 1 .011-.059l.016-.099.003-.018.008-.047s.534 4.544.974 5.101c.429.545.928.551.949.551 0 0-.142.535-.194.737-.014.047-.001.071.018.086.007.005.016.006.025.009.01.002.017.01.028.01.009 0 .018-.004.026-.005a.34.34 0 0 0 .084-.018l.032-.009c.032-.011.056-.022.056-.022l-.225.896c-.061.24.112.703.237.756a.085.085 0 0 0 .033.007c.013 0 .021-.01.032-.015.01-.004.021-.006.029-.014.015-.014.026-.028.04-.045.006-.011.014-.018.02-.027a.388.388 0 0 0 .028-.059l.009-.02.013-.035.267-.912s.196.803.112.973c-.083.17-.951.778-.957.955-.001.039.021.055.05.064a.097.097 0 0 0 .02.005c.008.009.011.012.018.012.027 0 .06-.006.091-.015l.02-.006c.036-.012.069-.023.098-.036.014-.007.017-.007.026-.013l.04-.019s-.195.31-.124.417c.009.014.023.02.042.02.013 0 .037-.015.054-.02a.505.505 0 0 0 .062-.021c.039-.018.08-.041.125-.069.026-.017.049-.029.076-.048.056-.037.109-.075.165-.116l.06-.043c.069-.052.133-.101.186-.138.225-.168.723-.758.758-1.074.005-.045.006-.122.006-.213a.528.528 0 0 1-.006-.091zm-7.463-13.19a.245.245 0 0 0 .154-.171l.056-.225c.125.212.359.421.796.421.493 0 .74-.265.866-.501l.125.333a.239.239 0 0 0 .12.132l.565.286c-.166.659-.736 1.134-1.054 1.453-.356.359-.421.966-.421.966s-.193-.772-.421-1c-.207-.207-.772-.865-1.049-1.597l.263-.097zm-1.9 5.438c-.116 2.243-.352 4.735-.541 5.02-.3.359-.898.554-.904.556a.248.248 0 0 0-.171.244l.035.844-1.026.019c-.004-.082-.059-.151-.132-.194l.06-.753a.259.259 0 0 0-.034-.146c-.01-.017-.245-.427-.104-1.083l.084-.376c.205-.904.685-3.02 1.032-4.946.096-.532.174-1.048.246-1.521.13-.851.291-1.911.44-2.04l1.066-.389c.249.395.894 1.392-.01 4.237l.122.324c-.089.035-.158.106-.163.204zm5.991 3.996l.003.019c-.438.25-1.549.886-3.871.442-.246 3.126.808 5.128.106 7.166-.495-.442-1.389-1.064-1.819-1.357l-.001-.169a.243.243 0 0 0-.166-.229c-.202-.068-.402-.209-.411-.267l.647-3.327a.246.246 0 0 0-.151-.275.873.873 0 0 1-.179-.097l.051-.203c.34-1.349.729-2.963.729-3.472 0-.102-.012-.228-.029-.361.511.235 1.614.461 2.185-.114.945.563 1.966.278 2.435.024-.006.091-.008.174-.006.245.011.304.104.605.212.955.091.293.194.624.265 1.02zm2.125 2.519a.25.25 0 0 0-.121-.054c.158-.599.151-.608.084-.695a.25.25 0 0 0-.193-.096c-.016 0-.405-.011-.758-.458-.272-.347-.703-3.12-.921-4.978-.012-.101-.09-.17-.186-.196l.115-.458c-.65-2.609-.233-3.569-.026-3.947.188.103.37.202.517.287.168.124.396 1.092.597 1.947.116.495.246 1.047.399 1.618.377 1.41.824 2.952 1.15 4.078.231.801.45 1.557.467 1.661.055.369-.176.774-.179.778a.253.253 0 0 0-.033.142l.036.523-.871-.01a.234.234 0 0 0-.077-.142z" fill="#259bb9"/></svg>