<svg xmlns="http://www.w3.org/2000/svg" viewBox="0 0 58.945 58.945" width="512" height="512"><path d="M32.95 50.937h-1.828l-.386-8.973-.196-10.709v-8.924l.192-.462c.314 1.39.396 2.976.475 4.524.041.827.08 1.609.154 2.357.195 1.983 1.88 3.022 3.441 3.022.907 0 1.736-.342 2.274-.935.517-.57.743-1.333.661-2.157-.303-17.312-8.287-18.607-9.884-18.69l-.104-.006-1.271.382a5.522 5.522 0 0 0 2.889-4.849C29.367 2.475 26.892 0 23.85 0s-5.516 2.475-5.516 5.517a5.516 5.516 0 0 0 3.139 4.969l-1.983-.422-.094.009c-3.16.323-10.086 5.268-10.083 17.802-.086.874.141 1.637.657 2.207.539.593 1.367.934 2.275.934 1.562 0 3.245-1.037 3.44-3.022.074-.739.114-1.51.157-2.326.08-1.543.163-3.134.481-4.537l.184.442v8.914l-.197 10.708-.576 13.452c0 .353.061.703.182 1.048a3.194 3.194 0 0 0 3.19 3.133c1.759 0 3.19-1.432 3.189-3.146l1.131-15.958h.151l.527 6.129.362 5.083h-.92v2.058h1.066l.135 1.891c0 .441.095.877.282 1.295a3.17 3.17 0 0 0 3.09 2.414c1.759 0 3.189-1.432 3.189-3.215l-.103-2.385h.896c.041.018.086.047.127.062a.61.61 0 0 0 .237.051.63.63 0 0 0 .347-.113h.138v-.142c.024-.035.051-.069.067-.108a.591.591 0 0 0-.067-.576v-1.231zm3.595-22.186c.053.534-.066.965-.354 1.282-.312.342-.813.538-1.383.538-.99 0-2.115-.606-2.246-1.938-.072-.72-.11-1.487-.151-2.3-.002-.067-.009-.135-.011-.202h4.029c.059.828.098 1.698.116 2.62zM19.572 5.037a4.32 4.32 0 0 1 4.285-3.833 4.32 4.32 0 0 1 4.286 3.833h-8.571zm.968 3.237h6.635a4.312 4.312 0 0 1-6.635 0zm3.805 2.736l-.171.052-.163-.035c.111-.003.223-.008.334-.017zm-4.909.271l4.789 1.02 3.674-1.103c.752.06 2.621.417 4.429 2.391H15.509c1.501-1.469 2.996-2.178 3.927-2.308zm-4.939 16.596c-.131 1.332-1.256 1.938-2.245 1.938-.569 0-1.074-.196-1.385-.539-.286-.317-.405-.747-.35-1.34 0-.624.023-1.222.057-1.805h4.045a39.701 39.701 0 0 1-.122 1.746zm6.606 27.762a1.99 1.99 0 0 1-1.571 1.942h-.835a1.993 1.993 0 0 1-1.57-1.955l.008-.131-.049-.123a1.966 1.966 0 0 1-.143-.699l.103-2.407h4.297l-.24 3.373zm.521-7.36h-4.407l.229-5.314h4.555l-.377 5.314zm3.168-8.554l-.429-4.964h-1.732l-.273 3.18-.127 1.784h-4.683l.097-5.313h11.756l.098 5.313h-4.707zm4.555-8.278H17.699l.018-.947v-4.369h11.626v5.134l.004.182zm-3.858 16.831l-.178-2.519-.241-2.797h4.513l.228 5.315h-4.322v.001zm2.639 9.116a1.977 1.977 0 0 1-1.934-1.546l-.042-.123a2.032 2.032 0 0 1-.196-.884l-.131-1.848h4.189l.103 2.409a1.992 1.992 0 0 1-1.989 1.992zm1.215-35.302v.803H17.716v-1.558l-.988-2.375-.632.598c-.35.33-.617.656-.781.871l-.075.099-.029.121a16.636 16.636 0 0 0-.369 2.245h-3.891c.383-2.085.99-3.846 1.718-5.316h22.044c.562 1.427 1.035 3.18 1.364 5.316h-3.938c-.146-1.068-.379-2.09-.781-3l-.565-1.283-1.45 3.479zM42.496 47.63c.018.32.283.569.602.569h.031a.6.6 0 0 0 .568-.632c-.037-.712-.129-1.636-.5-2.457a.6.6 0 1 0-1.096.493c.228.502.349 1.128.395 2.027zM36.615 50.364a.603.603 0 0 0-.831.187c-.449.709-.896 1.172-1.359 1.416a.598.598 0 0 0-.251.811.604.604 0 0 0 .808.254c.656-.345 1.25-.945 1.817-1.835a.605.605 0 0 0-.184-.833zM38.455 46.141a.596.596 0 0 0-.783.325l-.268.65a55.78 55.78 0 0 1-.61 1.467.603.603 0 0 0 .55.842c.23 0 .452-.135.551-.359.217-.496.422-1.002.623-1.495l.266-.646a.604.604 0 0 0-.329-.784zM40.484 44.212c.043 0 .086.012.145.033.061.021.118.049.176.074a.6.6 0 1 0 .506-1.091l-.237-.101a1.582 1.582 0 0 0-.587-.119c-.975 0-1.579.973-1.777 1.291a.599.599 0 0 0 .507.918.599.599 0 0 0 .512-.282c.289-.467.557-.723.755-.723z"/><circle cx="44.6" cy="53.895" r="5.05"/></svg>