<svg xmlns="http://www.w3.org/2000/svg" width="512" height="512" viewBox="0 0 31.973 31.973"><g fill="#D80027"><path d="M18.877 7.634c1.822 0 3.3-1.479 3.3-3.301 0-.731-.245-1.4-.646-1.947L21.91.807l-1.773.322L19.41 0l-1.934 1.29-1.37-.564-.322 1.611-1.371.807 1.214 1.71a3.295 3.295 0 0 0 3.25 2.78zM20.943 25.632l-.857-5.841-4.342-.044 1.975 5.885-1.27 5.479h-.154v.862h4.836v-.862h-.992zM20.086 19.419v-1.66l-3.426-2.91-.026-.004V9.409l2.563.041-.01 3.191.898.905v-5.47h-4.79l-.711.252v-.253s-.16-.005-.415.005v-.534a.328.328 0 0 0-.656 0v.591c-.806.103-2.855.368-3.377 1.051-.913 1.196-.914 9.78-.914 9.78l5.362-.631v-.594l.712.409v1.267h4.79zm-5.502-3.163V9.732l.712-.192v7.125l-.712-.409z"/><path d="M18.853 12.895l-.046-3.062-1.741-.012v4.684l4.369 3.86 1.315-1.707z"/></g></svg>