<svg xmlns="http://www.w3.org/2000/svg" viewBox="0 0 52.85 52.85" width="512" height="512"><g fill="#91DC5A"><path d="M27.956 22.843c3.248 3.968 9.03 4.266 9.088 4.269.292.035 5.098.723 7.656 4.948 1.942 3.209 2.003 7.504.227 12.755l.16-.177.942-3.77c2.581-8.691-.685-12-.718-12.032l-.111-.124a23.11 23.11 0 0 1-1.392-2.078 18.636 18.636 0 0 1-.833-1.555c-.402-.855-.7-1.675-.912-2.46l-.007-.022a12.238 12.238 0 0 1-.25-1.171 11.735 11.735 0 0 1-.139-1.092c-.004-.052-.003-.102-.006-.153-.025-.422-.03-.833-.009-1.229.002-.036.007-.071.009-.107.273-4.366 3.122-7.011 3.642-7.458.307-.335.611-.628.914-.898.015-.013.03-.031.045-.045a23.93 23.93 0 0 0-20.294-7.131c.667 2.381.685 5.694.019 9.949-.624 3.999.038 7.221 1.969 9.581z"/><path d="M50.566 11.035a1.41 1.41 0 0 0-.753-.221c-.295 0-.698.087-1.213.381l-.304.205c-.255.172-.508.37-.763.596l-.024.022c-.249.223-.5.473-.756.753l-.012.012-.125.116c-.273.217-6.663 5.451.143 14.557.056.058.143.158.243.28.031.038.057.068.091.112l.079.11c.05.068.099.132.153.212.03.044.062.1.093.148.055.085.108.166.165.263.037.063.076.14.113.209.052.096.105.185.158.291.043.086.085.188.128.281.048.104.096.201.143.314.043.103.083.223.125.334.045.119.091.229.133.357.043.13.081.276.122.415.037.125.076.242.11.375.041.159.074.335.11.505.027.129.059.25.083.386.033.182.055.383.082.577.019.141.044.272.059.419.02.191.028.4.042.602.011.168.028.326.034.502.007.206 0 .431-.001.648-.001.189.005.368-.002.564-.008.234-.033.486-.051.732-.015.198-.021.387-.043.594-.026.248-.07.516-.106.776-.031.223-.053.436-.092.667-.043.252-.105.522-.158.784-.052.259-.095.509-.158.778-.061.259-.142.538-.213.806-.075.283-.138.556-.225.849 5.458-7.369 6.486-17.28 2.31-25.328-.603-1.165-.756-2.421-.43-3.538a4.19 4.19 0 0 1 .71-1.445zM12.144 10.046c-.066.065-.138.122-.203.187a26.032 26.032 0 0 0-1.535 1.526l-.108.117c-.109.119-.2.243-.306.363l.131.049c.075.027.145.052.226.084.109.042.228.093.348.144.069.029.131.054.203.086.193.086.398.184.613.294.063.032.13.071.194.105.161.085.323.174.493.274.089.052.18.11.271.167a12.919 12.919 0 0 1 1.247.868c.103.08.205.159.308.244.171.14.342.291.515.446.095.085.189.166.284.256.221.209.441.435.661.671.045.049.091.091.136.141.263.289.522.601.779.931.074.095.144.2.217.298.182.245.362.497.537.764.09.137.176.282.264.425.154.251.306.509.454.778a19.383 19.383 0 0 1 .673 1.366c.08.179.16.356.236.543.136.332.263.682.388 1.038.06.172.124.337.182.515.175.544.339 1.109.483 1.708l.021.12c.002.017.011.085.033.192.153.751.925 3.428 4.232 4.117a3.387 3.387 0 0 1 .336-.039c.361-.022.776-.071 1.227-.123.846-.099 1.804-.209 2.791-.209 2.098 0 3.643.528 4.722 1.616 1.135 1.145 1.7 2.888 1.682 5.182l-.024.209c-.007.034-.777 3.714 1.198 6.163 1.329 1.647 3.614 2.422 6.901 2.307h.011c.052-.003.104.001.155.003 1.51-4.563 1.471-8.212-.118-10.855-2.049-3.406-6.095-4.008-6.136-4.013-.182-.004-6.648-.34-10.456-4.992-2.308-2.819-3.114-6.572-2.396-11.153.895-5.717.361-8.625-.309-10.095-.229-.495-.489-.85-.756-1.111-.057-.056-.114-.114-.172-.161a2.469 2.469 0 0 0-.226-.167 2.392 2.392 0 0 0-.16-.091 2.097 2.097 0 0 0-.341-.148c-.061-.019-.123-.041-.182-.054a2.075 2.075 0 0 0-.399-.05l-.053-.003c-.113 0-.191.01-.218.015L21 1.111a.688.688 0 0 0-.339.091c-.006.003-.012.01-.018.013a1.044 1.044 0 0 0-.315.305 1.955 1.955 0 0 0-.226.383 3.722 3.722 0 0 0-.153.378l-.021.059c-.221.675-.331 1.495-.364 2.107l-.006.118a6.636 6.636 0 0 0-.007.306l.005.679-.629.257a23.59 23.59 0 0 0-6.783 4.239z"/><path d="M7.825 13.831a23.216 23.216 0 0 0-1.219-.134c-.035-.003-.065-.002-.099-.005-.435-.031-.85-.05-1.24-.05-4.452 0-5.153 1.888-5.262 2.467a.376.376 0 0 0-.001.107c.208 1.726 1.355 2.701 2.282 3.216.879.486 1.329 1.496 1.118 2.511-1.497 7.198.243 14.314 4.899 20.04 4.985 6.13 12.556 9.789 20.251 9.79 4.689 0 9.163-1.385 13.054-4.023.556-.377 1.1-.779 1.631-1.207a.325.325 0 0 0-.022-.522l-.028-.019a.331.331 0 0 0-.149-.036c-.256.009-.491.014-.723.014-3.559 0-6.193-1.035-7.831-3.076-2.377-2.963-1.749-6.981-1.606-7.725 0-1.693-.37-2.925-1.102-3.662-.694-.7-1.743-1.025-3.302-1.025-.871 0-1.769.104-2.56.195-.49.057-.942.108-1.333.133l-.122.013a3.318 3.318 0 0 1-.371.025c-.128 0-.246-.012-.362-.035l-.011-.001c-3.61-.752-5.2-3.438-5.691-5.257a5.515 5.515 0 0 1-.146-.718c-2.193-9.027-8.422-10.729-9.126-10.895-.329-.055-.62-.081-.929-.121z"/></g></svg>