<svg xmlns="http://www.w3.org/2000/svg" viewBox="0 0 469.888 469.888"><path d="M435.647 342.753l17.15 48.65-16.47 7.59-25.87-44.62a3.47 3.47 0 0 1-.31-2.83c.18-.56.65-1.57 1.88-2.14l18.82-8.68a3.527 3.527 0 0 1 2.85-.04c.54.22 1.5.79 1.95 2.07zM59.737 351.543c.18.55.37 1.66-.31 2.83l-25.87 44.62-16.46-7.59 17.14-48.65a3.469 3.469 0 0 1 1.95-2.07c.54-.23 1.62-.52 2.85.04l18.82 8.68c1.23.57 1.71 1.58 1.88 2.14z" fill="#e29e30"/><path d="M298.887 155.983h-127.88c.54-25.25 21.24-45.63 46.61-45.63h34.65c25.38 0 46.07 20.38 46.62 45.63zM170.977 211.393h127.93v47.1h-127.93zM298.907 313.913v29.64c0 8.81-7.17 15.98-15.98 15.98h-95.97c-8.81 0-15.98-7.17-15.98-15.98v-29.64h127.93z" fill="#368753"/><path fill="#e29e30" d="M170.977 273.493h127.93v25.42h-127.93zM170.977 170.983h127.93v25.41h-127.93z"/><path d="M361.997 236.323v110.41c0 41.84-34.04 75.89-75.89 75.89h-102.33c-41.84 0-75.89-34.05-75.89-75.89v-110.41l29.7-64.38 4.41 2.41c1.14.62 2.37.92 3.59.92a7.514 7.514 0 0 0 7.51-7.5h2.88v175.78c0 17.08 13.9 30.98 30.98 30.98h95.97c17.08 0 30.98-13.9 30.98-30.98v-175.77h2.89c0 1.21.29 2.44.91 3.58a7.514 7.514 0 0 0 6.59 3.91c1.22 0 2.45-.3 3.59-.92l4.42-2.41 29.69 64.38z" fill="#6dcc93"/><path d="M361.997 153.823v46.68l-16.49-35.76 4.38-2.39a7.493 7.493 0 0 0 2.99-10.18c-1.98-3.63-6.53-4.97-10.17-2.99l-3.5 1.91-5.71-12.38a7.489 7.489 0 0 0-9.95-3.67 7.486 7.486 0 0 0-3.67 9.95l6.13 13.3-5.3 2.89a7.498 7.498 0 0 0-3.91 6.6h-2.89v-10.79c0-33.99-27.65-61.64-61.64-61.64h-34.65c-33.99 0-61.64 27.65-61.64 61.64v10.78h-2.88c0-2.66-1.42-5.23-3.91-6.59l-5.31-2.89 6.14-13.3c1.73-3.76.09-8.22-3.67-9.95a7.486 7.486 0 0 0-9.95 3.67l-5.72 12.38-3.49-1.91c-3.64-1.98-8.2-.64-10.18 2.99-1.98 3.64-.64 8.2 2.99 10.18l4.39 2.39-16.5 35.76v-46.68c0-58.76 47.8-106.55 106.55-106.55h41.01c58.75 0 106.55 47.79 106.55 106.55z" fill="#6dcc93"/><path d="M469.207 392.863a7.487 7.487 0 0 1-3.93 9.3l-28.87 13.31a7.42 7.42 0 0 1-3.14.69 7.48 7.48 0 0 1-6.49-3.74l-29.3-50.52c-2.61-4.5-3.2-9.93-1.63-14.89a18.57 18.57 0 0 1 9.9-11.23l1.75-.81-30.5-66.13v77.89c0 50.11-40.77 90.89-90.89 90.89h-102.33c-50.11 0-90.89-40.78-90.89-90.89v-77.89l-30.5 66.14 1.75.8a18.54 18.54 0 0 1 9.9 11.23 18.55 18.55 0 0 1-1.63 14.88l-29.3 50.53a7.48 7.48 0 0 1-6.49 3.74c-1.06 0-2.12-.22-3.14-.69l-28.87-13.31a7.497 7.497 0 0 1-3.93-9.3l19.41-55.09a18.58 18.58 0 0 1 10.26-10.91c2.3-.98 4.76-1.46 7.21-1.46 2.66 0 5.31.57 7.76 1.7l3.45 1.59 44.12-95.66v-79.21c0-67.03 54.53-121.55 121.55-121.55h41.01c67.02 0 121.55 54.52 121.55 121.55v79.21l44.12 95.66 3.45-1.59a18.575 18.575 0 0 1 14.97-.24c4.79 2.03 8.53 6 10.26 10.91l19.41 55.09zm-16.41-1.46l-17.15-48.65a3.442 3.442 0 0 0-1.95-2.07 3.527 3.527 0 0 0-2.85.04l-18.82 8.68c-1.23.57-1.7 1.58-1.88 2.14-.18.55-.37 1.66.31 2.83l25.87 44.62 16.47-7.59zm-90.8-44.67v-110.41l-29.69-64.38-4.42 2.41c-1.14.62-2.37.92-3.59.92-2.65 0-5.23-1.42-6.59-3.91a7.472 7.472 0 0 1-.91-3.58c0-2.66 1.41-5.24 3.91-6.6l5.3-2.89-6.13-13.3a7.486 7.486 0 0 1 3.67-9.95c3.76-1.74 8.21-.1 9.95 3.67l5.71 12.38 3.5-1.91c3.64-1.98 8.19-.64 10.17 2.99 1.99 3.64.65 8.2-2.99 10.18l-4.38 2.39 16.49 35.76v-46.68c0-58.76-47.8-106.55-106.55-106.55h-41.01c-58.75 0-106.55 47.79-106.55 106.55v46.68l16.5-35.76-4.39-2.39c-3.63-1.98-4.97-6.54-2.99-10.18 1.98-3.63 6.54-4.97 10.18-2.99l3.49 1.91 5.72-12.38a7.486 7.486 0 0 1 9.95-3.67c3.76 1.73 5.4 6.19 3.67 9.95l-6.14 13.3 5.31 2.89a7.493 7.493 0 0 1 2.99 10.18 7.514 7.514 0 0 1-6.59 3.91c-1.22 0-2.45-.3-3.59-.92l-4.41-2.41-29.7 64.38v110.41c0 41.84 34.05 75.89 75.89 75.89h102.33c41.85 0 75.89-34.05 75.89-75.89zm-302.57 7.64c.68-1.17.49-2.28.31-2.83-.17-.56-.65-1.57-1.88-2.14l-18.82-8.68a3.509 3.509 0 0 0-2.85-.04c-.53.22-1.5.79-1.95 2.07l-17.14 48.65 16.46 7.59 25.87-44.62z" fill="#4d4d4d"/><path d="M313.907 167.783v175.77c0 17.08-13.9 30.98-30.98 30.98h-95.97c-17.08 0-30.98-13.9-30.98-30.98v-186.56c0-33.99 27.65-61.64 61.64-61.64h34.65c33.99 0 61.64 27.65 61.64 61.64v10.79zm-15 175.77v-29.64h-127.93v29.64c0 8.81 7.17 15.98 15.98 15.98h95.97c8.81 0 15.98-7.17 15.98-15.98zm0-44.64v-25.42h-127.93v25.42h127.93zm0-40.42v-47.1h-127.93v47.1h127.93zm0-62.1v-25.41h-127.93v25.41h127.93zm-127.9-40.41h127.88c-.55-25.25-21.24-45.63-46.62-45.63h-34.65c-25.37 0-46.07 20.38-46.61 45.63z" fill="#4d4d4d"/></svg>