<svg xmlns="http://www.w3.org/2000/svg" viewBox="0 0 512 512"><path d="M467.674 351.194v-30.791c0-10.017 8.122-18.143 18.142-18.143s18.141 8.126 18.141 18.143v30.791c0 10.022-8.122 18.143-18.141 18.143-10.02.001-18.142-8.122-18.142-18.143z" fill="#ff9c9f"/><g fill="#4d3d2d"><path d="M467.674 320.403c0-34.419-28.002-62.422-62.422-62.422-34.422 0-62.425 28.003-62.425 62.422v41.367c0 10.017-8.122 18.141-18.141 18.141s-18.142-8.124-18.142-18.141v-41.367c0-54.428 44.281-98.707 98.709-98.707s98.705 44.279 98.705 98.707h-36.284zM238.86 419.383h-63.228c-41.665 0-75.565-33.899-75.565-75.564v-41.076c0-17.764-14.452-32.217-32.216-32.217-17.763 0-32.216 14.454-32.216 32.217 0 7.621-6.179 13.795-13.796 13.795s-13.795-6.174-13.795-13.795c0-32.978 26.83-59.808 59.808-59.808s59.808 26.83 59.808 59.808v41.077c0 26.454 21.521 47.973 47.973 47.973h63.228c7.618 0 13.795 6.179 13.795 13.797-.001 7.618-6.18 13.793-13.796 13.793z"/></g><path d="M435.005 422.255c7.107 0 12.867 5.759 12.867 12.865s-5.759 12.868-12.867 12.868h-39.934c-7.106 0-12.868-5.761-12.868-12.868s5.761-12.865 12.868-12.865h39.934z" fill="#db8689"/><path d="M339.774 317.031c-36.163 0-65.478 29.315-65.478 65.478s29.316 65.48 65.478 65.48h65.478v-65.48c0-36.164-29.315-65.478-65.478-65.478z" fill="#4d3d2d"/><g fill="#65513c"><path d="M179.294 299.669c0-51.571 41.808-93.38 93.38-93.38 51.575 0 93.382 41.809 93.382 93.38v54.936c0 51.573-41.807 93.383-93.382 93.383-51.572 0-93.38-41.809-93.38-93.383v-54.936z"/><path d="M338.097 64.011c55.216 0 99.979 44.762 99.979 99.979 0 55.215-44.763 99.979-99.979 99.979h-55.694c-55.216 0-99.978-44.764-99.978-99.979 0-55.217 44.762-99.979 99.978-99.979h55.694z"/></g><path d="M432.563 196.741a99.735 99.735 0 0 0 5.515-32.749c0-13.697-2.76-26.746-7.746-38.634a76.677 76.677 0 0 0-26.611-12.769 50.536 50.536 0 0 0-28.665 23.624c-7.857-14.229-22.397-24.234-39.381-25.827-39.708 3.03-70.991 36.182-70.991 76.67 0 41.308 32.581 74.969 73.444 76.789.95.075 1.924.128 2.953.128h60.684c22.465 0 40.677-18.212 40.677-40.679-.002-10.151-3.73-19.429-9.879-26.553z" fill="#ff9c9f"/><path d="M206.104 126.452c-20.733 0-37.539 16.809-37.539 37.539 0 20.734 16.806 37.541 37.539 37.541v-75.08z" fill="#65513c"/><g fill="#ff9c9f"><path d="M206.104 140.957c-12.725 0-23.036 10.312-23.036 23.033 0 12.723 10.311 23.037 23.036 23.037v-46.07zM323.548 422.255c7.107 0 12.868 5.759 12.868 12.865s-5.76 12.868-12.868 12.868h-39.935c-7.107 0-12.866-5.761-12.866-12.868s5.758-12.865 12.866-12.865h39.935z"/></g><path d="M228.318 317.031c-36.163 0-65.478 29.315-65.478 65.478s29.316 65.48 65.478 65.48h65.477v-65.48c-.001-36.164-29.317-65.478-65.477-65.478z" fill="#65513c"/><path d="M210.143 131.812h-30.791c-10.021 0-18.141-8.122-18.141-18.141s8.121-18.141 18.141-18.141h30.791c10.02 0 18.143 8.122 18.143 18.141s-8.124 18.141-18.143 18.141z" fill="#ff9c9f"/><path d="M179.352 131.812c-34.421 0-62.424 28.003-62.424 62.422 0 34.421 28.003 62.424 62.424 62.424h41.366c10.019 0 18.141 8.124 18.141 18.143s-8.123 18.139-18.141 18.139h-41.366c-54.429 0-98.709-44.276-98.709-98.707 0-54.428 44.28-98.704 98.709-98.704v36.283z" fill="#65513c"/><path d="M493.225 259.994c-10.862-15.775-25.566-28.211-42.753-36.266.001-.146.011-.29.011-.434a48.691 48.691 0 0 0-8.956-28.132 107.699 107.699 0 0 0 4.592-31.169c0-14.454-2.817-28.5-8.373-41.745-.028-.068-.069-.13-.099-.198l.019-.009c-16.927-40.137-56.012-66.072-99.57-66.072h-55.694c-28.525 0-56.079 11.444-76.243 31.518h-26.808c-58.863 0-106.751 47.886-106.751 106.747 0 14.902 3.074 29.099 8.614 41.995a67.949 67.949 0 0 0-13.365-1.335C30.437 234.893 0 265.33 0 302.743c0 12.041 9.797 21.837 21.837 21.837s21.839-9.797 21.839-21.837c0-13.331 10.844-24.175 24.174-24.175s24.174 10.844 24.174 24.175v41.077c0 22.025 8.523 42.828 23.998 58.573 14.505 14.76 33.554 23.492 54.004 24.846 13.453 17.489 34.571 28.791 58.29 28.791h95.23c1.938 0 3.807-.286 5.588-.782 3.506.509 7.075.782 10.64.782h95.23c11.529 0 20.909-9.38 20.909-20.91 0-11.528-9.379-20.908-20.909-20.908h-21.711V382.51c0-27.396-15.219-52.369-39.196-65.031v-17.808c0-9.446-1.292-18.7-3.838-27.656h31.502a48.47 48.47 0 0 0 18.822-3.785c23.122 6.771 39.047 27.853 39.047 52.175v30.791c0 14.439 11.746 26.186 26.185 26.186 14.437 0 26.183-11.747 26.183-26.186v-30.791c.002-21.686-6.491-42.575-18.773-60.411zm-305.83-156.422h22.749c5.57 0 10.101 4.53 10.101 10.099 0 5.568-4.532 10.099-10.101 10.099h-22.749v-20.198zm-6.01 98.687c3.972 10.491 9.479 20.208 16.469 28.97a101.382 101.382 0 0 0-12.8 17.386h-5.704c-29.986 0-54.382-24.396-54.382-54.382 0-25.584 17.765-47.085 41.605-52.848-3.889 6.801-6.053 14.585-6.053 22.606.003 16.028 8.324 30.139 20.865 38.268zM108.109 343.82v-41.077c0-22.199-18.06-40.26-40.259-40.26s-40.259 18.061-40.259 40.26a5.76 5.76 0 0 1-5.754 5.753 5.76 5.76 0 0 1-5.753-5.753c0-28.544 23.222-51.765 51.765-51.765a51.541 51.541 0 0 1 25.897 6.962 107.642 107.642 0 0 0 19.545 20.09 51.627 51.627 0 0 1 6.322 24.713v41.077c0 23.547 14.768 44.42 36.5 52.501a72.883 72.883 0 0 0 3.821 13.142c-29.613-7.156-51.825-34.052-51.825-65.643zm46.842 34.154c-11.71-7.106-19.25-19.949-19.25-34.155v-41.076c0-3.889-.34-7.756-.999-11.56a105.982 105.982 0 0 0 36.551 9.494v35.544c-9.387 11.547-15.338 25.985-16.302 41.753zm130.801 61.972h-57.435c-31.67 0-57.436-25.766-57.436-57.438 0-31.669 25.765-57.436 57.436-57.436 31.669 0 57.435 25.765 57.435 57.436v57.438zm37.796 0h-21.711v-9.649h21.711a4.83 4.83 0 0 1 4.825 4.823 4.83 4.83 0 0 1-4.825 4.826zm8.404-23.956a20.751 20.751 0 0 0-8.405-1.778h-21.711v-31.704c0-40.539-32.981-73.52-73.519-73.52a73.092 73.092 0 0 0-40.981 12.512v-20.519h33.382a8.04 8.04 0 0 0 8.042-8.042 8.04 8.04 0 0 0-8.042-8.042h-41.366c-49.993 0-90.666-40.672-90.666-90.664 0-47.279 36.386-86.2 82.624-90.286v20.294c-35.08 4.005-62.424 33.858-62.424 69.991 0 38.855 31.61 70.466 70.466 70.466h41.366a8.04 8.04 0 0 0 8.042-8.042 8.04 8.04 0 0 0-8.042-8.042H204.32a86.004 86.004 0 0 1 9.955-11.138 8.041 8.041 0 0 0 .416-11.303 91.902 91.902 0 0 1-12.212-16.757 46.21 46.21 0 0 0 3.624.157 8.042 8.042 0 1 0 0-16.084c-16.265 0-29.497-13.233-29.497-29.499 0-9.734 4.653-18.609 12.542-24.138h8.214c-9.629 3.792-16.466 13.179-16.466 24.138 0 14.303 11.638 25.94 25.94 25.94a8.04 8.04 0 0 0 8.042-8.042 8.04 8.04 0 0 0-8.042-8.042c-5.434 0-9.856-4.421-9.856-9.856 0-5.432 4.421-9.852 9.856-9.852a8.04 8.04 0 0 0 8.042-8.042 8.023 8.023 0 0 0-3.056-6.303c13.657-.87 24.505-12.251 24.505-26.123 0-8.902-4.47-16.776-11.28-21.509 16.189-12.896 36.465-20.108 57.353-20.108h55.697c28.131 0 54.061 12.716 71.234 33.773a83.945 83.945 0 0 0-3.595-1.024 8.016 8.016 0 0 0-4.488.132c-10.26 3.312-19.266 9.305-26.197 17.301a58.344 58.344 0 0 0-38.625-19.858 7.86 7.86 0 0 0-1.363-.013c-21.296 1.626-41.064 11.152-55.66 26.827-14.678 15.762-22.761 36.31-22.761 57.863 0 45.491 35.565 82.721 80.99 84.817 1.256.098 2.355.143 3.45.143h12.309a84.682 84.682 0 0 1 4.626 27.656v54.936a85.178 85.178 0 0 1-26.065 61.384zm81.342 14.307h21.711a4.83 4.83 0 0 1 4.824 4.823 4.83 4.83 0 0 1-4.824 4.825h-21.711v-9.648zm-39.195-75.692V336.45c14.339 10.697 23.111 27.677 23.111 46.058v57.438h-53.336c.369-1.552.584-3.162.584-4.825 0-2.641-.513-5.159-1.41-7.487 19.81-19.082 31.051-45.322 31.051-73.029zm27.664-98.676h-60.684c-.699 0-1.436-.032-2.316-.103a6.524 6.524 0 0 0-.279-.017c-36.875-1.643-65.76-31.843-65.76-68.755 0-35.544 27.557-65.54 62.868-68.594 13.663 1.5 25.747 9.551 32.421 21.639a8.04 8.04 0 0 0 14.081.001 42.255 42.255 0 0 1 21.911-19.088 68.25 68.25 0 0 1 19.742 9.51c4.173 10.66 6.287 21.908 6.287 33.469a91.666 91.666 0 0 1-5.07 30.113 8.042 8.042 0 0 0 1.51 7.89 32.597 32.597 0 0 1 7.924 21.297c-.001 17.998-14.641 32.638-32.635 32.638zm34.855 1.357a48.819 48.819 0 0 0 10.843-17.108c27.349 14.361 45.394 41.404 48.09 72.182H475.25a70.18 70.18 0 0 0-38.632-55.074zm59.297 93.908c0 5.57-4.53 10.101-10.099 10.101-5.568 0-10.1-4.532-10.1-10.101v-22.749h20.199v22.749zM392.878 184.628l-4.772 4.771a8.041 8.041 0 0 0-.001 11.374 8.017 8.017 0 0 0 5.687 2.356 8.014 8.014 0 0 0 5.686-2.355l4.772-4.771a8.04 8.04 0 0 0 .001-11.373 8.04 8.04 0 0 0-11.373-.002zm-22.795 0a8.042 8.042 0 1 0-11.374 11.374l4.771 4.771a8.022 8.022 0 0 0 5.687 2.355 8.042 8.042 0 0 0 5.687-13.729l-4.771-4.771zm-48.542-29.718a8.473 8.473 0 0 0-8.475 8.478 8.478 8.478 0 0 0 16.953 0 8.476 8.476 0 0 0-8.478-8.478zm107.931 8.478a8.473 8.473 0 0 0-8.475-8.478 8.474 8.474 0 0 0-8.475 8.478 8.476 8.476 0 1 0 16.95 0z" fill="#1e252b"/></svg>