<svg xmlns="http://www.w3.org/2000/svg" viewBox="0 0 511.459 511.459"><path d="M453.522 107.434c31.945 0 57.937 25.993 57.937 57.948s-25.993 57.948-57.937 57.948h-29.445c.043.66.097 1.331.13 1.991 6.601 7.597 10.324 17.422 10.324 27.529 0 11.525-4.772 22.487-12.986 30.343.13 1.699.206 3.398.206 5.075 0 29.585-20.29 54.875-48.328 61.79v3.484c0 15.182-7.824 29.369-20.333 37.582v41.511c0 4.956-4.026 8.982-8.993 8.982h-62.093c-4.956 0-8.982-4.026-8.982-8.982v-41.511a45.387 45.387 0 0 1-16.448-19.359c-8.884 4.166-18.58 6.341-28.612 6.341a67.25 67.25 0 0 1-34.672-9.599c-3.279 9.187-9.49 17.195-17.747 22.617v41.511c0 4.956-4.026 8.982-8.982 8.982H104.35c-4.956 0-8.982-4.026-8.982-8.982v-41.511c-12.52-8.213-20.344-22.4-20.344-37.582v-15.658a134.172 134.172 0 0 1-6.991-5.411c-30.419-5.118-52.992-31.566-52.992-62.753 0-6.471.963-12.802 2.857-18.894-8.516-11.081-13.137-24.619-13.137-38.719 0-16.816 6.579-32.745 18.245-44.595C9.847 164.506 0 152.71 0 138.654c0-15.691 12.271-28.568 27.713-29.542a25.525 25.525 0 0 1 16.037-5.649 25.607 25.607 0 0 1 16.21 5.789c3.398-.4 6.861-.184 10.172.595 11.99-14.988 30.375-24.013 49.789-24.013a63.788 63.788 0 0 1 20.615 3.43c7.553-11.936 20.734-19.424 35.429-19.424 8.744 0 17.26 2.77 24.316 7.781 9.317-5.108 19.716-7.781 30.505-7.781 13.548 0 26.469 4.22 37.247 12.033 7.25-5.584 16.167-8.668 25.56-8.668 10.021 0 19.662 3.604 27.216 10.021a43.776 43.776 0 0 1 4.761-.271c5.151 0 10.183.941 14.901 2.727 7.694-8.646 18.894-14.111 31.349-14.111 9.891 0 19.446 3.56 26.923 9.804a32.795 32.795 0 0 1 14.923-3.571c17.022 0 31.057 13.018 32.68 29.629l7.176.001zm37.972 57.948c0-20.95-17.033-37.983-37.972-37.983H441.9c-5.735 9.62-16.243 16.08-28.233 16.08-2.63 0-5.205-.303-7.705-.909a63.395 63.395 0 0 1 4.967 24.64c0 3.257-.26 6.471-.736 9.631-.022.195-1.796 8.679-3.257 12.564a32.634 32.634 0 0 1 6.276 13.96h40.309c20.94 0 37.973-17.043 37.973-37.983zm-65.545-50.892c.011-.022.584-2.521.584-3.842 0-7.099-5.768-12.867-12.867-12.867-3.441 0-6.677 1.331-9.101 3.766a9.994 9.994 0 0 1-7.791 2.9 9.996 9.996 0 0 1-7.283-4.004c-4.199-5.66-10.648-8.906-17.671-8.906-12.098 0-21.946 9.826-22 21.913.011.184.022.325.022.465a9.989 9.989 0 0 1-8.625 10.031c-21.459 2.965-37.647 21.567-37.647 43.264 0 24.088 19.608 43.686 43.697 43.686 3.582 0 12.261-1.602 13.061-1.602 3.777 0 7.326 2.143 9.003 5.681 2.175 4.545 6.612 7.359 11.611 7.359 7.099 0 12.867-5.768 12.867-12.867 0-3.95-1.786-7.618-4.902-10.085a9.997 9.997 0 0 1-2.705-12.369c3.16-6.179 4.751-12.845 4.751-19.803a43.494 43.494 0 0 0-7.001-23.72 9.968 9.968 0 0 1 1.969-13.083 22.139 22.139 0 0 0 5.216-6.341 9.964 9.964 0 0 1 6.666-4.978 9.994 9.994 0 0 1 8.116 1.807c2.272 1.721 4.945 2.619 7.748 2.619 5.757.001 10.648-3.798 12.282-9.024zm-11.384 138.361c0-6.147-2.489-11.849-7.012-16.07a10.006 10.006 0 0 1-2.814-4.718c-5.984 6.298-14.436 10.237-23.796 10.237-9.869 0-19.165-4.534-25.322-11.979a65.38 65.38 0 0 1-8.354.541c-35.104 0-63.662-28.557-63.662-63.651 0-28.893 19.706-54.009 46.975-61.433.13-.725.292-1.439.465-2.153-1.775-.454-3.603-.693-5.476-.693s-3.744.227-5.562.703a9.993 9.993 0 0 1-9.956-3.052 22.024 22.024 0 0 0-16.459-7.413c-6.753 0-13.04 3.052-17.249 8.365a9.984 9.984 0 0 1-7.218 3.766 9.934 9.934 0 0 1-7.629-2.868c-8.235-8.138-19.143-12.628-30.711-12.628-9.252 0-18.093 2.868-25.582 8.289-4.069 2.954-9.718 2.402-13.148-1.277-4.22-4.523-9.934-7.012-16.091-7.012-9.674 0-18.115 6.201-20.993 15.42a9.981 9.981 0 0 1-14.274 5.811c-6.439-3.474-13.429-5.238-20.777-5.238-15.312 0-29.705 8.192-37.561 21.372a9.95 9.95 0 0 1-6.244 4.599 9.958 9.958 0 0 1-7.651-1.266c-2.521-1.58-5.541-1.937-8.397-.887a9.971 9.971 0 0 1-11.665-3.723 5.649 5.649 0 0 0-4.653-2.467c-1.688 0-3.333.703-4.35 2.078-3.593 4.826-9.49 3.517-9.815 3.517-5.302 0-9.62 4.318-9.62 9.631 0 5.313 4.318 9.631 9.62 9.631a9.332 9.332 0 0 0 3.961-.887 9.986 9.986 0 0 1 11.427 2.143 9.982 9.982 0 0 1 1.656 11.514 21.7 21.7 0 0 0-2.478 9.858 9.993 9.993 0 0 1-3.604 7.564c-10.053 8.332-15.821 20.593-15.821 33.633 0 11.124 4.199 21.729 11.817 29.867a9.966 9.966 0 0 1 1.905 10.724c-2.283 5.378-3.441 11.114-3.441 17.022 0 22.13 16.546 40.775 38.481 43.372a10.014 10.014 0 0 1 5.4 2.392 110.995 110.995 0 0 0 10.702 8.246 109.688 109.688 0 0 0 28.503 13.808c10.735 3.398 34.433 5.118 34.433 5.118 1.407 0 5.519 1.461 6.255 1.688a21.956 21.956 0 0 0 15.626-.833 9.98 9.98 0 0 1 4.047-.855h10.226c2.532 0 4.956.952 6.807 2.673 8.863 8.257 20.398 12.812 32.475 12.812 10.15 0 19.835-3.149 28.006-9.112a46.48 46.48 0 0 0 4.469-3.679 10.002 10.002 0 0 1 6.828-2.694h26.729c12.412 0 24.597-2.045 36.208-6.082a109.56 109.56 0 0 0 11.839-4.902 9.92 9.92 0 0 1 6.525-.758 43.626 43.626 0 0 0 14.685.747c21.978-2.586 38.535-21.242 38.535-43.393 0-2.467-.227-5.01-.671-7.532a9.995 9.995 0 0 1 4.09-9.891c5.855-4.122 9.361-10.853 9.361-17.995zm-74.353 124.965c16.351-8.008 15.236-25.95 15.236-25.95a64.754 64.754 0 0 1-7.759-.79 140.421 140.421 0 0 1-5.227 2.229v.238c0 9.512-3.03 18.743-8.581 26.382a26.24 26.24 0 0 0 6.331-2.109zm-5.097 45.828v-25.701c-2.164.325-4.35.498-6.579.498a46.52 46.52 0 0 1-6.406-.465v25.668h12.985zm-17.174-52.494a26.985 26.985 0 0 0 5.941-12.001 130.998 130.998 0 0 1-29.888 3.474h-21.751c2.37 6.558 7.25 12.109 13.667 15.193a26.644 26.644 0 0 0 11.665 2.651c3.679 0 7.207-.725 10.518-2.143.726-.487 7.76-4.75 9.848-7.174zm-13.948 52.494v-25.668a46.68 46.68 0 0 1-6.417.465 44.54 44.54 0 0 1-6.59-.498v25.701h13.007zm-141.327-45.828c5.952-2.868 10.54-7.824 13.072-13.721a42.201 42.201 0 0 1-10.248 1.266c-.747 0-1.504-.022-2.251-.065a44.965 44.965 0 0 1-7.023 14.663 27.083 27.083 0 0 0 6.45-2.143zm-5.086 45.828v-25.701a44.28 44.28 0 0 1-6.579.498c-2.208 0-4.393-.173-6.536-.487v25.69h13.115zm-17.282-52.505a26.773 26.773 0 0 0 4.999-8.668 129.927 129.927 0 0 1-33.221-5.898 129.38 129.38 0 0 1-19.078-7.77v4.74c0 10.291 5.984 19.814 15.247 24.272a26.723 26.723 0 0 0 11.676 2.651c3.917 0 11.849-2.759 11.979-2.814a26.87 26.87 0 0 0 8.398-6.513zm-13.851 52.505v-25.69a44.951 44.951 0 0 1-6.525.487c-2.229 0-4.415-.173-6.579-.498v25.701h13.104z" fill="#633"/><path d="M453.522 127.399c20.939 0 37.972 17.033 37.972 37.983 0 20.939-17.033 37.983-37.972 37.983h-40.309a32.651 32.651 0 0 0-6.276-13.96c1.461-3.885 3.236-12.369 3.257-12.564a64.61 64.61 0 0 0 .736-9.631 63.395 63.395 0 0 0-4.967-24.64c2.5.606 5.075.909 7.705.909 11.99 0 22.498-6.46 28.233-16.08h11.621zm-10.67 33.417c0-6.298-5.108-11.417-11.417-11.417s-11.416 5.118-11.416 11.417c0 6.309 5.108 11.427 11.416 11.427 6.309 0 11.417-5.119 11.417-11.427z" fill="#f9dcb2"/><path d="M431.435 149.399c6.309 0 11.417 5.118 11.417 11.417 0 6.309-5.108 11.427-11.417 11.427s-11.416-5.118-11.416-11.427c0-6.298 5.107-11.417 11.416-11.417z" fill="#633"/><g fill="#fff"><path d="M426.533 110.648c0 1.32-.574 3.82-.584 3.842-1.634 5.227-6.525 9.025-12.282 9.025-2.803 0-5.476-.898-7.748-2.619a9.994 9.994 0 0 0-8.116-1.807 9.964 9.964 0 0 0-6.666 4.978 22.125 22.125 0 0 1-5.216 6.341 9.968 9.968 0 0 0-1.969 13.083 43.496 43.496 0 0 1 7.001 23.72c0 6.958-1.591 13.624-4.751 19.803a9.998 9.998 0 0 0 2.705 12.369c3.117 2.467 4.902 6.136 4.902 10.085 0 7.099-5.768 12.867-12.867 12.867-4.999 0-9.436-2.814-11.611-7.359-1.677-3.539-5.227-5.681-9.003-5.681-.801 0-9.479 1.602-13.061 1.602-24.088 0-43.697-19.597-43.697-43.686 0-21.697 16.189-40.299 37.647-43.264a9.991 9.991 0 0 0 8.625-10.031c0-.141-.011-.281-.022-.465.054-12.087 9.901-21.913 22-21.913 7.023 0 13.473 3.246 17.671 8.906a9.997 9.997 0 0 0 7.283 4.004 9.994 9.994 0 0 0 7.791-2.9c2.424-2.435 5.66-3.766 9.101-3.766 7.099-.001 12.867 5.767 12.867 12.866z"/><path d="M407.553 236.781c4.523 4.22 7.012 9.923 7.012 16.07 0 7.142-3.506 13.873-9.36 17.996a9.992 9.992 0 0 0-4.09 9.891 43.64 43.64 0 0 1 .671 7.532c0 22.151-16.557 40.807-38.535 43.393-4.87.584-9.815.335-14.685-.747a9.913 9.913 0 0 0-6.525.758 109.394 109.394 0 0 1-11.839 4.902c-11.611 4.036-23.796 6.082-36.208 6.082h-26.729c-2.532 0-4.978.963-6.828 2.694a46.332 46.332 0 0 1-4.469 3.679c-8.17 5.963-17.855 9.112-28.006 9.112-12.077 0-23.612-4.556-32.475-12.812a9.975 9.975 0 0 0-6.807-2.673h-10.226a9.98 9.98 0 0 0-4.047.855 21.956 21.956 0 0 1-15.626.833c-.736-.227-4.848-1.688-6.255-1.688 0 0-23.699-1.721-34.433-5.118a109.688 109.688 0 0 1-28.503-13.808 110.872 110.872 0 0 1-10.702-8.246 10.03 10.03 0 0 0-5.4-2.392c-21.935-2.597-38.481-21.242-38.481-43.372 0-5.908 1.158-11.644 3.441-17.022a9.964 9.964 0 0 0-1.905-10.724c-7.618-8.138-11.817-18.743-11.817-29.867 0-13.04 5.768-25.3 15.821-33.633a9.996 9.996 0 0 0 3.604-7.564 21.71 21.71 0 0 1 2.478-9.858 9.982 9.982 0 0 0-1.656-11.514 9.986 9.986 0 0 0-11.427-2.143 9.325 9.325 0 0 1-3.961.887c-5.302 0-9.62-4.318-9.62-9.631 0-5.313 4.318-9.631 9.62-9.631.325 0 6.222 1.309 9.815-3.517 1.017-1.374 2.662-2.078 4.35-2.078 1.85 0 3.593.92 4.653 2.467a9.971 9.971 0 0 0 11.665 3.723c2.857-1.05 5.876-.693 8.397.887a9.958 9.958 0 0 0 7.651 1.266 9.95 9.95 0 0 0 6.244-4.599c7.856-13.18 22.249-21.372 37.561-21.372 7.348 0 14.338 1.764 20.777 5.238a9.974 9.974 0 0 0 8.506.465 9.975 9.975 0 0 0 5.768-6.276c2.878-9.22 11.319-15.42 20.993-15.42 6.157 0 11.871 2.489 16.091 7.012 3.43 3.679 9.079 4.231 13.148 1.277 7.488-5.421 16.329-8.289 25.582-8.289 11.568 0 22.476 4.491 30.711 12.628a9.934 9.934 0 0 0 7.629 2.868 9.98 9.98 0 0 0 7.218-3.766c4.21-5.313 10.497-8.365 17.249-8.365a22.02 22.02 0 0 1 16.459 7.413 9.994 9.994 0 0 0 9.956 3.052c1.818-.476 3.69-.703 5.562-.703s3.701.238 5.476.693a36.47 36.47 0 0 0-.465 2.153c-27.27 7.423-46.975 32.54-46.975 61.433 0 35.094 28.557 63.651 63.662 63.651a65.38 65.38 0 0 0 8.354-.541c6.157 7.445 15.453 11.979 25.322 11.979 9.36 0 17.812-3.939 23.796-10.237a9.973 9.973 0 0 0 2.813 4.717zm-77.405 44.076a8.997 8.997 0 0 0-6.363-11.005c-7.64-2.034-15.864.162-21.448 5.757-5.595 5.595-7.802 13.808-5.746 21.448 1.071 4.015 4.707 6.655 8.668 6.655.779 0 1.558-.097 2.337-.303 4.794-1.288 7.64-6.211 6.352-11.005a4.18 4.18 0 0 1 1.093-4.09 4.2 4.2 0 0 1 4.101-1.093 9.002 9.002 0 0 0 11.006-6.364zm-89.027-147.3c1.288-4.794-1.558-9.718-6.352-11.005-8.787-2.337-18.223.195-24.651 6.612-6.428 6.428-8.949 15.875-6.601 24.651a8.99 8.99 0 0 0 8.679 6.655c.768 0 1.558-.097 2.337-.314a8.976 8.976 0 0 0 6.341-11.005 7.563 7.563 0 0 1 1.959-7.283 7.565 7.565 0 0 1 7.294-1.948c4.793 1.277 9.717-1.569 10.994-6.363zm-10.973 107.596c2.359-8.776-.173-18.223-6.59-24.651-6.428-6.417-15.864-8.949-24.651-6.612-4.794 1.288-7.64 6.211-6.363 11.005 1.288 4.794 6.211 7.64 11.005 6.363a7.59 7.59 0 0 1 7.294 1.948 7.565 7.565 0 0 1 1.959 7.283 8.976 8.976 0 0 0 6.341 11.005 8.756 8.756 0 0 0 2.337.314c3.961 0 7.597-2.651 8.668-6.655zm-86.636 57.494c2.359-8.776-.173-18.212-6.601-24.64s-15.864-8.96-24.64-6.612c-4.794 1.288-7.64 6.211-6.363 11.005 1.277 4.794 6.201 7.64 11.005 6.352a7.576 7.576 0 0 1 7.294 1.959 7.572 7.572 0 0 1 1.948 7.283c-1.288 4.794 1.558 9.718 6.352 11.005a9.099 9.099 0 0 0 2.327.314 9 9 0 0 0 8.678-6.666zM113.04 178.974c1.277-4.794-1.569-9.718-6.363-10.994-7.64-2.045-15.864.162-21.448 5.746-5.595 5.595-7.802 13.819-5.746 21.459 1.071 4.015 4.707 6.655 8.668 6.655.768 0 1.558-.097 2.337-.314 4.794-1.288 7.64-6.211 6.352-11.005a4.186 4.186 0 0 1 1.093-4.09 4.2 4.2 0 0 1 4.101-1.093c4.794 1.276 9.718-1.57 11.006-6.364zM355.448 351.866s1.115 17.942-15.236 25.95a26.221 26.221 0 0 1-6.33 2.11 44.894 44.894 0 0 0 8.581-26.382v-.238c1.764-.714 3.506-1.45 5.227-2.229 2.574.421 5.172.681 7.758.789z"/></g><path d="M335.115 397.943v25.701h-12.986v-25.668a46.52 46.52 0 0 0 6.406.465c2.229 0 4.415-.173 6.58-.498z" fill="#f9dcb2"/><path d="M323.785 269.851c4.794 1.288 7.64 6.211 6.363 11.005-1.288 4.794-6.211 7.64-11.005 6.363a4.199 4.199 0 0 0-4.101 1.093 4.18 4.18 0 0 0-1.093 4.09c1.288 4.794-1.558 9.718-6.352 11.005a9.099 9.099 0 0 1-2.337.303c-3.961 0-7.597-2.64-8.668-6.655-2.056-7.64.151-15.853 5.746-21.448 5.583-5.593 13.807-7.79 21.447-5.756z" fill="#633"/><path d="M323.882 359.149a26.975 26.975 0 0 1-5.941 12.001c-2.089 2.424-9.122 6.688-9.847 7.175a26.527 26.527 0 0 1-10.518 2.143c-4.08 0-8.008-.887-11.665-2.651-6.417-3.084-11.297-8.635-13.667-15.193h21.751a131.109 131.109 0 0 0 29.887-3.475z" fill="#fff"/><path d="M303.993 397.976v25.668h-13.007v-25.701a44.54 44.54 0 0 0 6.59.498c2.175 0 4.306-.173 6.417-.465z" fill="#f9dcb2"/><g fill="#633"><path d="M234.769 122.551c4.794 1.288 7.64 6.211 6.352 11.005-1.277 4.794-6.201 7.64-10.994 6.363a7.566 7.566 0 0 0-7.294 1.948 7.565 7.565 0 0 0-1.959 7.283 8.976 8.976 0 0 1-6.341 11.005 8.756 8.756 0 0 1-2.337.314 8.99 8.99 0 0 1-8.679-6.655c-2.348-8.776.173-18.223 6.601-24.651 6.427-6.417 15.864-8.949 24.651-6.612zM223.558 216.502c6.417 6.428 8.949 15.875 6.59 24.651-1.071 4.004-4.707 6.655-8.668 6.655a8.715 8.715 0 0 1-2.337-.314 8.976 8.976 0 0 1-6.341-11.005 7.563 7.563 0 0 0-1.959-7.283 7.591 7.591 0 0 0-7.294-1.948 8.997 8.997 0 0 1-11.005-6.363 8.997 8.997 0 0 1 6.363-11.005c8.787-2.337 18.223.195 24.651 6.612z"/></g><path d="M175.738 364.094c-2.532 5.898-7.12 10.854-13.072 13.721a27.038 27.038 0 0 1-6.45 2.143 44.965 44.965 0 0 0 7.023-14.663c.747.043 1.504.065 2.251.065 3.485 0 6.915-.433 10.248-1.266z" fill="#fff"/><path d="M157.58 397.943v25.701h-13.115v-25.69c2.143.314 4.329.487 6.536.487a44.28 44.28 0 0 0 6.579-.498z" fill="#f9dcb2"/><path d="M136.911 274.007c6.428 6.428 8.96 15.864 6.601 24.64a9 9 0 0 1-8.679 6.666 9.11 9.11 0 0 1-2.327-.314c-4.794-1.288-7.64-6.211-6.352-11.005a7.57 7.57 0 0 0-1.948-7.283 7.578 7.578 0 0 0-7.294-1.959c-4.805 1.288-9.728-1.558-11.005-6.352a8.997 8.997 0 0 1 6.363-11.005c8.777-2.348 18.213.184 24.641 6.612z" fill="#633"/><path d="M145.298 362.471a26.791 26.791 0 0 1-4.999 8.668 26.894 26.894 0 0 1-8.397 6.514c-.13.054-8.062 2.814-11.979 2.814a26.72 26.72 0 0 1-11.676-2.651C98.984 373.358 93 363.835 93 353.544v-4.74a129.38 129.38 0 0 0 19.078 7.77 129.953 129.953 0 0 0 33.22 5.897z" fill="#fff"/><path d="M126.447 397.954v25.69h-13.105v-25.701c2.164.325 4.35.498 6.579.498 2.208 0 4.384-.173 6.526-.487z" fill="#f9dcb2"/><path d="M106.677 167.979c4.794 1.277 7.64 6.201 6.363 10.994-1.288 4.794-6.211 7.64-11.005 6.363a4.199 4.199 0 0 0-4.101 1.093 4.186 4.186 0 0 0-1.093 4.09c1.288 4.794-1.558 9.718-6.352 11.005a8.756 8.756 0 0 1-2.337.314c-3.961 0-7.597-2.64-8.668-6.655-2.056-7.64.151-15.864 5.746-21.459 5.583-5.582 13.807-7.79 21.447-5.745z" fill="#633"/></svg>