<svg xmlns="http://www.w3.org/2000/svg" viewBox="0 0 512 512" width="512" height="512"><path d="M452.162 76.028l-44.833-50.87c-18.145-20.586-49.431-23.655-71.232-6.986l-9.193 7.03C307.534 9.455 282.852 0 256 0s-51.533 9.455-70.903 25.203l-9.193-7.031c-21.798-16.669-53.087-13.601-71.23 6.986l-44.835 50.87a8.58 8.58 0 0 0-1.089 9.79 8.579 8.579 0 0 0 8.835 4.355l81.422-12.614a112.13 112.13 0 0 0-5.583 35.017c0 33.341 14.574 63.337 37.679 83.969l-83.769 50.743c-8.892 5.383-15.155 13.909-17.633 24.004-2.479 10.096-.876 20.553 4.513 29.442 7.308 12.061 20.17 18.736 33.342 18.735a38.68 38.68 0 0 0 20.09-5.616l20.81-12.606-23.193 92.496a8.574 8.574 0 0 0 5.421 10.157 339.096 339.096 0 0 0 18.677 6.081l-7.992 58.307c-1.396 10.187 1.257 20.305 7.469 28.491 6.213 8.188 15.244 13.466 25.456 14.864 1.773.238 3.533.358 5.233.358 19.113 0 35.491-14.297 38.093-33.26l7.603-55.462c6.92.42 13.849.64 20.778.64 6.929 0 13.859-.221 20.778-.64l7.603 55.464c2.604 18.96 18.981 33.258 38.093 33.258 1.699 0 3.46-.12 5.259-.361 10.187-1.395 19.219-6.673 25.431-14.861 6.212-8.187 8.864-18.305 7.469-28.492l-7.992-58.307a339.936 339.936 0 0 0 18.677-6.08 8.577 8.577 0 0 0 5.42-10.157l-23.438-93.478 22.433 13.588a38.677 38.677 0 0 0 20.089 5.616c13.17 0 26.035-6.675 33.34-18.734 5.39-8.891 6.993-19.348 4.514-29.443-2.478-10.095-8.741-18.619-17.632-24.003l-84.588-51.24c22.784-20.615 37.121-50.401 37.121-83.473 0-12.221-1.966-23.991-5.583-35.017l81.421 12.614a8.579 8.579 0 0 0 8.834-4.355 8.578 8.578 0 0 0-1.088-9.79zm-363.793-6.43L117.54 36.5c12.213-13.857 33.272-15.922 47.945-4.703l7.01 5.36a113.2 113.2 0 0 0-15.464 21.802L88.369 69.598zm111.838-34.365a111.748 111.748 0 0 0 14.518 43.572c-13.751 16.988-32.921 28.749-54.137 33.302.153-31.605 15.754-59.609 39.619-76.874zM128.763 299.18c-10.261 6.212-23.664 2.923-29.88-7.337a21.613 21.613 0 0 1-2.525-16.463 21.609 21.609 0 0 1 9.861-13.421l73.209-44.346-15.042 59.987-35.623 21.58zm81.864 177.23c-1.443 10.513-10.514 18.439-21.101 18.439-.941 0-1.936-.07-2.932-.202a21.182 21.182 0 0 1-14.095-8.236 21.2 21.2 0 0 1-4.139-15.795l7.698-56.154a341.565 341.565 0 0 0 42.053 7.346l-7.484 54.602zm128.874 10c-3.443 4.537-8.449 7.462-14.07 8.233a22.375 22.375 0 0 1-2.957.206c-10.586 0-19.658-7.927-21.101-18.438l-7.485-54.604a341.646 341.646 0 0 0 42.054-7.346l7.697 56.153a21.195 21.195 0 0 1-4.138 15.796zm67.659-224.449a21.608 21.608 0 0 1 9.859 13.42 21.598 21.598 0 0 1-2.525 16.464c-6.216 10.255-19.614 13.547-29.878 7.336l-37.246-22.562-15.041-59.987 74.831 45.329zm-48.971 128.328c-66.199 21.975-138.179 21.975-204.377 0l45.287-180.611a111.993 111.993 0 0 0 11.499 5.902c.156 24.905 20.458 45.119 45.398 45.119 24.947 0 45.255-20.216 45.41-45.12a112.58 112.58 0 0 0 11.498-5.902l45.285 180.612zm-129.694-168.54A112.438 112.438 0 0 0 256 225.153c9.487 0 18.702-1.186 27.51-3.405-2.929 12.478-14.149 21.8-27.513 21.8-13.359 0-24.573-9.321-27.502-21.799zM256 208.002c-46.905 0-85.986-34.027-93.925-78.688 24.255-4.719 46.367-17.394 62.774-35.926 20.66 25.271 52.064 41.432 87.174 41.432 13.002 0 25.942-2.281 38.106-6.644-7.469 45.221-46.824 79.826-94.129 79.826zm56.024-90.333c-51.471 0-93.528-40.972-95.331-92.011A94.824 94.824 0 0 1 256 17.151c51.49 0 93.56 41 95.341 92.063-12.34 5.609-25.539 8.455-39.317 8.455zm42.946-58.71a113.208 113.208 0 0 0-15.464-21.803l7.009-5.36c14.672-11.219 35.734-9.153 47.946 4.703l29.171 33.097-68.662-10.637z" fill="#FFDA44"/><circle cx="306.311" cy="156.077" r="8.576" fill="#FFDA44"/><circle cx="205.69" cy="156.077" r="8.576" fill="#FFDA44"/></svg>