<svg xmlns="http://www.w3.org/2000/svg" viewBox="0 0 512 512"><g fill="#999282"><path d="M495.66 299.574V495.66c0 6.017-4.877 10.894-10.894 10.894h-98.043c-6.017 0-10.894-4.877-10.894-10.894v-10.894c0-12.033 9.754-21.787 21.787-21.787 6.017 0 10.894-4.877 10.894-10.894v-65.362l-32.681-87.149H495.66zM179.745 299.574H136.17l32.681 87.149v65.362c0 6.017-4.877 10.894-10.894 10.894-12.033 0-21.787 9.754-21.787 21.787v10.894c0 6.017 4.877 10.894 10.894 10.894H245.107c6.017 0 10.894-4.877 10.894-10.894V299.574h-76.256z"/></g><path d="M506.553 190.638v70.875c0 33.872-25.876 62.132-59.616 65.109l-257.363 24.272c-19.68 1.856-38.145-9.768-44.98-28.318l-6.697-18.178-10.2-1.43c-14.353-2.012-25.666-13.238-27.791-27.575L75.817 112.787a10.895 10.895 0 0 0-10.776-9.298H27.234c-12.033 0-21.787-9.754-21.787-21.787V66.647c0-4.127 2.331-7.898 6.022-9.743l37.552-18.776c0-18.049 14.631-32.681 32.681-32.681h52.955a32.679 32.679 0 0 1 30.895 22.027l20.983 60.851c12.121 35.15 45.207 58.739 82.388 58.739h194.055c24.066 0 43.575 19.509 43.575 43.574z" fill="#e1ddd2"/><g fill="#847c6d"><path d="M212.426 314.907v58.574l-22.853 2.156a43.504 43.504 0 0 1-27.324-6.519l-26.078-69.544h52.781a43.63 43.63 0 0 0 23.474 15.333zM402.395 299.574l-25.658 2.419 20.28 54.078 49.92-4.708c1.74-.154 3.453-.39 5.148-.675v-51.114h-49.69z"/></g><path d="M506.553 261.207v.306a65.098 65.098 0 0 1-10.894 36.107v198.04c0 6.017-4.877 10.894-10.894 10.894H430.297c-6.017 0-10.894-4.877-10.894-10.894v-10.894c0-12.033 9.754-21.787 21.787-21.787 6.017 0 10.894-4.877 10.894-10.894v-65.362l-21.944-58.517L256 344.629V495.66c0 6.017-4.877 10.894-10.894 10.894H190.638c-6.017 0-10.894-4.877-10.894-10.894v-10.894c0-12.033 9.754-21.787 21.787-21.787 6.017 0 10.894-4.877 10.894-10.894v-65.362l-13.758-36.688-9.094.857c-19.68 1.856-38.145-9.768-44.979-28.318l-6.697-18.178-10.2-1.43c-14.353-2.012-25.666-13.238-27.791-27.575l-24.09-162.605a10.895 10.895 0 0 0-10.776-9.298c32.166 0 59.476 23.563 64.191 55.381l8.44 56.971c2.124 14.337 13.437 25.563 27.791 27.575l10.2 1.43 6.697 18.178c6.834 18.55 25.298 30.174 44.98 28.318l257.363-24.272a65.151 65.151 0 0 0 21.851-5.862z" fill="#c9c1b1"/><g fill="#cec4ae"><path d="M205.536 225.979v3.347c0 4.79-3.38 8.913-8.078 9.852l-6.866 1.374c-5.566 1.113-10.948-2.601-11.882-8.201l-1.005-6.032c-1.133-6.801 4.763-12.697 11.562-11.562l7.872 1.312a10.045 10.045 0 0 1 8.397 9.91zM187.331 154.551l-17.069-2.845c-14.746-2.458-27.53 10.326-25.073 25.073l2.18 13.079c2.024 12.141 13.694 20.197 25.763 17.783l14.889-2.977c10.184-2.037 17.515-10.979 17.515-21.365v-7.257c0-10.651-7.699-19.74-18.205-21.491zM462.979 147.064H268.924a87.016 87.016 0 0 1-45.246-12.669l-5.25 47.246c-3.691 33.217 24.172 61.388 57.428 58.062l150.72-15.071c26.85-2.686 47.296-25.279 47.296-52.262v-23.932a43.608 43.608 0 0 0-10.893-1.374z"/></g><path d="M92.596 43.574c0 9.024-7.316 16.34-16.34 16.34s-16.34-7.316-16.34-16.34 7.316-16.34 16.34-16.34 16.34 7.316 16.34 16.34z" fill="#ccc6ba"/><path d="M182.206 76.056l-16.752-48.582a32.682 32.682 0 0 0-30.895-22.027H81.602c-1.525 0-3.024.113-4.495.315-1.74 6.163-2.205 12.84-1.057 19.729l4.528 27.174c4.204 25.224 28.453 41.961 53.528 36.946l30.935-6.188a45.127 45.127 0 0 0 17.165-7.367z" fill="#cec4ae"/><path d="M170.609 130.622l-35.44 8.86c-16.192 4.048-31.501-9.183-29.841-25.792l7.56-75.6a12.057 12.057 0 0 1 11.996-10.857h12.921c4.728 0 9.857 3.656 11.397 8.126l20.512 59.484a96.155 96.155 0 0 0 8.322 17.918c4.138 6.94.412 15.901-7.427 17.861z" fill="#604835"/><path d="M172.659 102.274l-19.315 4.829c-16.192 4.048-31.501-9.183-29.841-25.792l5.408-54.077h8.895c4.728 0 9.857 3.656 11.398 8.126l20.512 59.484c.874 2.537 1.875 5.005 2.943 7.43z" fill="#705340"/><path d="M27.234 49.021v16.34a5.447 5.447 0 0 1-5.447 5.447H5.447v-4.161c0-4.127 2.331-7.898 6.022-9.743l15.765-7.883z" fill="#5b4f3b"/><path d="M81.702 43.574a5.447 5.447 0 1 1-10.895 0 5.447 5.447 0 0 1 10.895 0z" fill="#442d1e"/><path d="M462.979 141.617H268.924c-34.841 0-65.881-22.129-77.239-55.068l-20.982-60.85C165.402 10.327 150.917 0 134.657 0H81.702C61.839 0 45.474 15.267 43.729 34.684L9.033 52.032C3.461 54.817 0 60.417 0 66.647v15.055c0 15.017 12.217 27.234 27.234 27.234h37.807c2.679 0 4.996 1.999 5.388 4.649l24.09 162.607c2.461 16.609 15.794 29.839 32.423 32.17l6.972.977 5.57 15.12a49.371 49.371 0 0 0 1.793 4.242l22.127 59.009v64.375a5.453 5.453 0 0 1-5.447 5.447c-15.017 0-27.234 12.217-27.234 27.234v10.894c0 9.01 7.33 16.34 16.34 16.34h98.043c9.01 0 16.34-7.33 16.34-16.34V349.586l122.971-11.597 18.646 49.722v64.375a5.453 5.453 0 0 1-5.447 5.447c-15.017 0-27.234 12.217-27.234 27.234v10.894c0 9.01 7.33 16.34 16.34 16.34h98.043c9.01 0 16.34-7.33 16.34-16.34V299.259C508.238 287.955 512 274.942 512 261.513v-70.875c0-27.03-21.991-49.021-49.021-49.021zM13.905 61.776l7.883-3.94v7.526H11.045a5.41 5.41 0 0 1 2.86-3.586zm161.326 439.33h-28.168a5.453 5.453 0 0 1-5.447-5.447v-10.894c0-9.01 7.33-16.34 16.34-16.34s16.34-7.33 16.34-16.34v-65.362c0-.654-.118-1.301-.346-1.913l-13.097-34.927a48.919 48.919 0 0 0 29.231 6.432l4.947-.466 11.947 31.862v64.375a5.453 5.453 0 0 1-5.447 5.447c-15.017 0-27.234 12.217-27.234 27.234v10.894c.001 1.907.33 3.742.934 5.445zm239.659 0h-28.167a5.453 5.453 0 0 1-5.447-5.447v-10.894c0-9.01 7.33-16.34 16.34-16.34s16.34-7.33 16.34-16.34v-65.362c0-.654-.117-1.301-.346-1.913l-17.955-47.882 30.849-2.91 20.134 53.691v64.375a5.453 5.453 0 0 1-5.447 5.447c-15.017 0-27.234 12.217-27.234 27.234v10.894c0 1.909.329 3.744.933 5.447zm86.216-239.593c0 11.692-3.368 23.011-9.745 32.76a5.445 5.445 0 0 0-1.148 3.345v198.04a5.453 5.453 0 0 1-5.447 5.447h-54.468a5.453 5.453 0 0 1-5.447-5.447v-10.894c0-9.01 7.33-16.34 16.34-16.34s16.34-7.33 16.34-16.34v-65.362c0-.654-.117-1.301-.346-1.913l-19.444-51.851 9.674-.913a70.83 70.83 0 0 0 19.237-4.448 5.447 5.447 0 0 0-3.916-10.166 60.001 60.001 0 0 1-16.313 3.766l-16.747 1.58c-.028.003-.058.005-.086.009l-41.849 3.947c-.13.008-.259.021-.389.037l-131.865 12.436a5.447 5.447 0 0 0-4.935 5.423v151.03a5.453 5.453 0 0 1-5.447 5.447h-54.468a5.453 5.453 0 0 1-5.447-5.447v-10.894c0-9.01 7.33-16.34 16.34-16.34s16.34-7.33 16.34-16.34v-65.362c0-.654-.118-1.301-.346-1.913l-11.257-30.021 20.602-1.943a5.446 5.446 0 0 0 4.912-5.934c-.282-2.996-2.948-5.21-5.934-4.911l-27.579 2.601a3.944 3.944 0 0 0-.216.021l-8.991.848c-15.849 1.475-30.838-7.041-37.766-21.075l-1.423-3.794a5.5 5.5 0 0 0-.66-1.245l-6.204-16.843a5.444 5.444 0 0 0-4.355-3.511l-10.2-1.43c-11.878-1.666-21.402-11.115-23.16-22.979L81.205 111.99c-1.178-7.951-8.127-13.947-16.164-13.947H27.234c-9.01 0-16.34-7.33-16.34-16.34v-5.447h10.894c6.007 0 10.894-4.887 10.894-10.894V52.387l18.776-9.388a5.447 5.447 0 0 0 3.011-4.872c0-15.017 12.217-27.234 27.234-27.234h52.955a27.242 27.242 0 0 1 25.746 18.357l20.983 60.85c12.873 37.33 48.052 62.411 87.538 62.411H462.98c21.024 0 38.128 17.104 38.128 38.128v70.874zm-10.983 5.045a5.446 5.446 0 0 1-4.911 5.934L227.85 296.764a48.98 48.98 0 0 1-4.61.218c-20.348 0-38.85-12.689-45.992-32.076a5.447 5.447 0 0 1 10.222-3.766c5.972 16.212 22.158 26.402 39.356 24.78l257.362-24.272c2.998-.3 5.652 1.914 5.935 4.91zm-260.707-38.353c-12.364-12.5-18.342-29.692-16.4-47.166l2.53-22.77a5.447 5.447 0 0 1 10.826 1.201l-2.53 22.77c-1.576 14.191 3.278 28.152 13.319 38.303 10.041 10.152 23.949 15.166 38.154 13.737l150.72-15.072a46.925 46.925 0 0 0 42.391-46.839 5.446 5.446 0 0 1 5.447-5.447 5.446 5.446 0 0 1 5.447 5.447 57.79 57.79 0 0 1-52.2 57.682l-150.721 15.072a58.86 58.86 0 0 1-5.844.292c-15.419-.001-30.157-6.106-41.139-17.21z"/></svg>