<svg xmlns="http://www.w3.org/2000/svg" width="512" height="512" viewBox="0 0 24 24"><path d="M11.106 12.069c.542 0 .979-.488.979-1.084 0-.6-.437-1.083-.979-1.083-.541 0-.983.483-.983 1.083 0 .596.442 1.084.983 1.084zm.188-2.031c.247 0 .448.22.448.493s-.201.495-.448.495c-.249 0-.45-.222-.45-.495s.201-.493.45-.493zM14.814 12.069c.546 0 .984-.488.984-1.084 0-.6-.438-1.083-.984-1.083-.541 0-.98.483-.98 1.083 0 .596.439 1.084.98 1.084zm.189-2.031c.247 0 .449.22.449.493s-.202.495-.449.495c-.244 0-.446-.222-.446-.495s.202-.493.446-.493z"/><path d="M20.197 5.485c-.008-.033-.012-.063-.031-.09-.006-.008-.003-.018-.009-.023-.018-.02-.044-.02-.065-.032-.021-.013-.032-.037-.058-.044l-1.535-.404.745-1.402c.02-.037.011-.077.011-.117.024-.041.049-.085.044-.137a.25.25 0 0 0-.271-.228l-1.121.099-.688-1.76-.004-.004c-.013-.031-.045-.049-.069-.072-.022-.021-.037-.051-.065-.063-.002 0-.002-.003-.004-.004-.03-.012-.06.002-.091.002-.03 0-.061-.013-.09-.001l-.004.004c-.03.013-.046.043-.068.065-.024.024-.054.039-.067.07l-.004.005-.273.709-1.669-1.67c-.012-.011-.028-.008-.041-.017s-.016-.026-.03-.032c-.018-.01-.036.001-.055-.003a.232.232 0 0 0-.091-.005.225.225 0 0 0-.089.037c-.015.01-.034.007-.048.02-.011.012-.008.028-.017.041s-.026.016-.033.031l-.337.726L12.107.083c-.02-.012-.041-.002-.063-.008s-.036-.024-.06-.024c-.013 0-.021.012-.033.014-.032.005-.055.019-.083.034-.029.018-.054.031-.074.059-.008.01-.021.01-.027.021-.011.02-.002.041-.008.063s-.024.036-.024.06v.884A16.594 16.594 0 0 0 9.13.077a.196.196 0 0 0-.125-.026c-.021 0-.035.019-.055.023a.23.23 0 0 0-.084.035.224.224 0 0 0-.06.073c-.011.016-.032.024-.037.044-.004.014.005.026.004.04-.003.013-.016.022-.016.038l.013 1.452L6.652.591c-.004-.002-.007.001-.01-.001-.004-.001-.004-.007-.008-.008-.03-.013-.058-.001-.088-.003-.031-.001-.062-.012-.092-.002-.032.011-.052.039-.078.063-.021.018-.049.025-.063.05V.7c-.002.004-.007.005-.009.009-.195.44-.158 1.243-.105 1.774L4.242 1.361c-.008-.005-.016.001-.024-.003-.009-.004-.011-.014-.02-.018-.026-.007-.049.007-.074.007-.033-.001-.061-.006-.092.006-.032.011-.052.035-.076.058-.018.017-.042.022-.055.043-.005.008 0 .016-.003.024-.003.009-.014.011-.017.021-.427 1.272.699 4.078 1.176 5.168L4.164 6.5c-.013-.003-.021.007-.034.007-.013-.001-.019-.011-.033-.01-.023.002-.035.022-.056.028a.213.213 0 0 0-.087.045c-.022.021-.031.044-.045.072-.011.021-.032.033-.037.058-.002.012.008.022.007.034 0 .012-.011.021-.01.032.204 2.412 2.287 3.029 3.003 3.171l-.094 1.21c0 .005.004.008.004.014-.001.033.018.06.03.092.012.029.016.061.037.083.004.003.002.009.006.013.025.024.06.025.091.036.021.009.036.029.062.031a.243.243 0 0 0 .194-.074c.002-.003.006-.001.008-.003l.003-.004.404 1.366a.245.245 0 0 0 .097.133l.004.005a.261.261 0 0 0 .21.031c.006-.002.008-.008.013-.01a.241.241 0 0 0 .124-.092l.371-.559a7.3 7.3 0 0 0 .983 1.31c-.805 2.281-.909 3.854-.304 4.665.247.33.546.447.759.492v.317l-.779 3.175c-.004.012.005.02.004.032-.001.01-.012.017-.012.027 0 .025.02.041.026.063.009.033.015.061.035.086.021.026.046.039.074.055.021.012.031.034.055.04.02.005.04.007.06.007h.72l.203 1.264c.006.035.031.06.051.088.011.018.014.039.029.053a.245.245 0 0 0 .167.069h1.057a.241.241 0 0 0 .159-.065c.015-.014.021-.027.032-.044.015-.021.036-.034.045-.06l.45-1.305h1.418l.45 1.305c.009.025.03.039.045.06.012.017.018.03.032.044a.243.243 0 0 0 .159.065h1.057a.245.245 0 0 0 .167-.069c.016-.014.019-.035.029-.053.02-.028.045-.053.051-.088l.203-1.264h1.045c.02 0 .039-.002.06-.007.023-.006.034-.028.055-.04.028-.016.054-.028.074-.055.021-.025.026-.053.036-.086.006-.021.025-.037.025-.063 0-.011-.011-.018-.012-.027-.001-.012.008-.021.005-.031l-.766-3.127 1.465-1.459c.013-.013.01-.031.019-.046a.2.2 0 0 0 .035-.085.22.22 0 0 0 .001-.092c-.003-.017.007-.032 0-.049l-1.502-3.684a7.554 7.554 0 0 0 1.479-2.156l.067 1.173c.001.024.021.04.028.062.01.028.017.052.035.075a.23.23 0 0 0 .08.057c.019.011.028.031.05.036.02.004.038.006.057.006h.015c.014-.001.021-.014.033-.016a.23.23 0 0 0 .12-.059c.017-.016.023-.035.035-.057.013-.021.034-.037.04-.063l.773-3.34.637.346a.255.255 0 0 0 .23.004l.004-.005a.233.233 0 0 0 .104-.1c.004-.007-.001-.015.002-.022.014-.031.01-.061.01-.094.001-.032.006-.061-.006-.092-.003-.008.002-.016-.002-.023L18.92 6.806l1.217-1.081c.011-.009.008-.024.017-.034.023-.027.05-.053.06-.089.002-.009-.005-.017-.004-.026.004-.032-.006-.059-.013-.091zM9.018 10.279l-.001.005c-.003.033.019.057.026.086.009.031.006.066.027.094h.002a.247.247 0 0 0 .171.092l.022.001c.055 0 .11-.019.156-.056l2.268-1.822.258.635a.24.24 0 0 0 .104.118c.002.001.002.005.005.007a.258.258 0 0 0 .217.013c.005-.002.005-.008.01-.01a.235.235 0 0 0 .114-.1l.628-1.113 1.173 1.036c.016.014.037.011.055.021.014.008.02.025.035.029a.225.225 0 0 0 .076.013c.064 0 .12-.031.166-.075.006-.006.016-.003.021-.01.009-.01.005-.024.013-.036.012-.019.031-.03.038-.052l.154-.479 1.121.984c.005.004.013.002.019.006.005.004.005.012.01.016.042.027.09.04.137.04.063 0 .121-.03.169-.076.005-.005.014-.003.019-.009.003-.004.001-.009.004-.013.006-.007.013-.009.018-.016l.286-.438.932 1.999c-.97 2.174-2.668 3.532-4.509 3.532-2.059 0-3.937-1.706-4.82-4.351l.962-1.019-.086.948zm7.369 4.636l.991 2.431-.991.987v-3.418zm-6.872 2.971c-.274-.367-.571-1.381.298-3.963.921.816 2.007 1.279 3.147 1.279.779 0 1.528-.23 2.223-.625l-2.722 4.199h-2.088v-3.253a.25.25 0 0 0-.5 0v2.639a.804.804 0 0 1-.358-.276zm1.87 5.565h-.665l-.156-.974h1.157l-.336.974zm3.813 0h-.665l-.336-.974h1.157l-.156.974z"/></svg>