<svg xmlns="http://www.w3.org/2000/svg" viewBox="0 0 489.696 489.696" width="512" height="512"><path d="M128.443 141.07a4.252 4.252 0 0 0 4.918 2.305c9.271-2.416 36.201-7.216 49.425-.572 8.676 4.866 18.324 7.389 28.175 7.389 3.631 0 7.29-.342 10.936-1.033 13.453-2.552 25.136-9.705 33.517-19.635.068-.064.146-.114.21-.184 13.261-14.275 50.949-18.842 51.329-18.886a4.251 4.251 0 0 0 3.755-4.304c-.681-35.184-12.499-51.098-32.874-64.17a329.894 329.894 0 0 0 2.999-2.162c16.318-11.904 25.658-20.781 26.048-21.153a4.25 4.25 0 0 0-2.935-7.323h-.009c-1.413.003-22.724.153-52.651 5.837C233.699-.466 203.86-5.028 176.757 5.87c-22.318 8.969-38.561 26.532-43.994 46.284-4.367-7.614-11.302-16.674-19.59-16.674-4.466 0-8.445 2.487-11.828 7.393-7.698 11.163-15.961 26.213-11.602 34.515.961 1.83 3.406 4.899 8.992 4.9h.001c.609 0 1.251-.037 1.909-.11 3.11-.346 6.727-1.394 10.433-2.787-13.64 10.229-21.6 17.761-22.323 18.451a4.25 4.25 0 0 0 2.935 7.323h.009c.561-.001 12.243-.057 30.547-2.382-2.211 14.11-.525 23.985 6.197 38.287zm6.276-6.746c-5.109-11.779-5.981-20.09-3.643-32.772l.225-.033a369.639 369.639 0 0 0 22.01-4.043c.172 1.835.421 3.672.764 5.487 2.015 10.62 6.837 20.245 13.911 28.059-13.126-.658-26.936 1.911-33.267 3.302zm85.593 6.483c-26.836 5.094-52.797-12.599-57.886-39.427a50.686 50.686 0 0 1-.748-5.808c15.125-3.638 29.668-8.204 43.488-13.654 19.65 8.706 38.139 13.63 55.243 14.713-1.966 21.774-18.308 40.046-40.097 44.176zm81.777-38.255c-7.274 1.122-23.323 4.121-36.814 10.313a57.453 57.453 0 0 0 3.645-16.025c5.09-.063 10.056-.469 14.873-1.252a4.252 4.252 0 0 0 3.514-4.878 4.255 4.255 0 0 0-4.878-3.513c-19.554 3.18-41.809-.148-66.254-9.866 21.45-9.458 39.974-20.554 54.058-30.071 19.897 11.978 30.496 24.59 31.856 55.292zM179.928 13.757c21.797-8.768 45.411-6.417 60.946 5.557-16.032 3.536-33.942 8.641-52.275 16.01-18.325 7.367-34.777 16.074-48.792 24.614 2.989-19.222 18.544-37.509 40.121-46.181zM99.708 73.73a9.028 9.028 0 0 1-.97.058h-.001c-.214 0-1.292-.017-1.468-.352-1.115-2.125.904-10.992 11.074-25.737 1.17-1.697 2.957-3.719 4.83-3.719 4.648 0 11.063 9.562 14.923 17.603-7.302 4.259-20.672 11.289-28.388 12.147zm92.061-30.52c41.136-16.535 80.932-21.372 100.18-22.785a330.336 330.336 0 0 1-16.127 12.527c-15.909 11.605-41.307 28.025-71.955 40.346-22.764 9.15-47.609 15.818-73.847 19.818-10.652 1.624-19.699 2.505-26.325 2.983 14.871-12.303 46.941-36.353 88.074-52.889zM242.51 232.618c-6.203 0-11.25 5.047-11.25 11.25s5.047 11.25 11.25 11.25 11.25-5.047 11.25-11.25-5.047-11.25-11.25-11.25zm0 14c-1.517 0-2.75-1.233-2.75-2.75s1.233-2.75 2.75-2.75 2.75 1.233 2.75 2.75-1.233 2.75-2.75 2.75z"/><path d="M190.098 169.424l-75.264 69.051c-4.997 4.653-7.884 10.974-8.127 17.799-.243 6.824 2.186 13.334 6.839 18.331 4.653 4.997 10.975 7.884 17.799 8.127.313.012.624.018.934.018 5.93 0 11.566-2.041 16.137-5.785l-25.758 87.845a4.249 4.249 0 0 0 4.078 5.446h48.604l-16.12 75.869c-1.616 7.606-.173 15.387 4.063 21.908 4.236 6.521 10.758 11.002 18.364 12.618 2.033.432 4.078.646 6.109.646 5.565 0 11.019-1.604 15.797-4.707 6.521-4.235 11.003-10.757 12.619-18.362l18.693-87.972h3.973l-17.852 84.268c-1.617 7.607-.175 15.387 4.062 21.909 4.235 6.521 10.757 11.002 18.362 12.618 2.034.432 4.079.646 6.11.646 5.566 0 11.02-1.603 15.797-4.707 6.522-4.235 11.004-10.757 12.62-18.362l20.48-96.372h48.314a4.247 4.247 0 0 0 4.078-5.445L315.9 245.723c.617.047 1.234.077 1.851.077a24.617 24.617 0 0 0 10.393-2.322l.118 2.978c.017.434.116.84.253 1.229a11.706 11.706 0 0 0-1.256 5.268v26.441c0 6.51 5.297 11.807 11.807 11.807h51.381c6.51 0 11.807-5.297 11.807-11.807V252.95c0-5.518-3.811-10.15-8.935-11.439l-23.963-51.032c-.08-.171-.186-.32-.285-.476l.007-.01c3.703-5.35 5.112-11.809 3.968-18.188-1.146-6.393-4.725-11.951-10.072-15.652-11.077-7.663-26.302-4.917-33.947 6.13l-17.439 25.291L277.369 164c-11.373-7.578-25.708-12.16-40.619-12.16-16.575.001-34.921 6.938-46.652 17.584zm193.659 71.719h-44.69c-.857 0-1.69.097-2.495.271l-.168-4.254c.485-.576.956-1.17 1.391-1.799l.007-.01.038-.054 25.683-37.247 20.234 43.093zm-25.62-77.999a15.638 15.638 0 0 1 6.543 10.163c.745 4.151-.175 8.359-2.595 11.855l-26.232 38.044-2.085-52.824 2.252-3.267c4.977-7.187 14.897-8.969 22.117-3.971zM321.5 295.036h-72.99a4.249 4.249 0 0 0-4.25 4.25 4.249 4.249 0 0 0 4.25 4.25h75.482l11.193 38.188h-196.9l5.626-19.188h63.599a4.249 4.249 0 0 0 4.25-4.25 4.249 4.249 0 0 0-4.25-4.25h-61.106l33.557-114.44c7.341-3.077 14.472-4.332 21.171-4.386l12.8 28.266a11.202 11.202 0 0 0-3.171 7.811c0 6.203 5.047 11.25 11.25 11.25s11.25-5.047 11.25-11.25-5.047-11.25-11.25-11.25c-.102 0-.199.013-.3.016l-10.915-24.104c20.404 3.258 34.969 16.18 35.854 16.98a4.252 4.252 0 0 0 6.179-.488c3.94-4.926 7.999-8.733 11.951-11.681l-2.564 19.315c-5.832.411-10.455 5.275-10.455 11.21 0 6.203 5.047 11.25 11.25 11.25s11.25-5.047 11.25-11.25c0-3.363-1.491-6.378-3.838-8.441l3.677-27.7c7.085-3.336 13.054-4.166 16.216-4.345a42.33 42.33 0 0 1 2.65 6.893l28.534 97.344zm-128.481-117.74l4.321 9.541a63.03 63.03 0 0 0-13.374 2.344c2.324-4.345 5.391-8.34 9.053-11.885zm28.991 51.24c1.517 0 2.75 1.233 2.75 2.75s-1.233 2.75-2.75 2.75-2.75-1.233-2.75-2.75 1.234-2.75 2.75-2.75zm41 0c1.517 0 2.75 1.233 2.75 2.75s-1.233 2.75-2.75 2.75-2.75-1.233-2.75-2.75 1.234-2.75 2.75-2.75zm13.874-54.369c3.196 2.598 6.055 5.495 8.487 8.654a54.298 54.298 0 0 0-9.982 2.605l1.495-11.259zm-7.86-5.377l-2.771 20.868c-5.592 3.184-11.534 7.722-17.29 14.188-6.652-5.091-22.36-15.372-42.266-16.946l-6.882-15.197c10.167-7.112 23.163-11.361 36.934-11.361 11.739-.001 22.923 3.103 32.275 8.448zM143.887 269.672c-3.336 3.106-7.655 4.745-12.239 4.565a16.954 16.954 0 0 1-11.881-5.426 16.942 16.942 0 0 1-4.564-12.235 16.95 16.95 0 0 1 5.425-11.881l51.242-47.715-18.811 64.151-9.172 8.541zm63.972 186.788a20.48 20.48 0 0 1-8.934 13.001 20.445 20.445 0 0 1-12.927 3.237l12.66-56.482a4.25 4.25 0 0 0-3.218-5.077 4.256 4.256 0 0 0-5.077 3.218l-12.53 55.905c-7.789-4.253-12.234-13.257-10.298-22.371l16.496-77.636h42.145l-18.317 86.205zm61.766 8.4a20.477 20.477 0 0 1-13.158 15.084l13.219-69.868a4.25 4.25 0 1 0-8.352-1.58l-13.733 72.593a21.159 21.159 0 0 1-2.422-.352 20.476 20.476 0 0 1-13.002-8.935 20.473 20.473 0 0 1-2.874-15.514l18.226-86.033h42.2l-20.104 94.605zM132.412 361.755l3.389-11.557c.087.005.169.025.257.025h201.621l3.38 11.531H132.412zm180.824-125.128l-12.104-41.293a49.957 49.957 0 0 0-2.224-6.178l11.354 7.83c.929.64 2.073.886 3.181.681a4.242 4.242 0 0 0 2.731-1.768l9.548-13.848 2.042 51.73c-4.021 3.24-9.486 4.375-14.528 2.846zm77.212 46.071h-51.381a3.31 3.31 0 0 1-3.307-3.307V252.95a3.31 3.31 0 0 1 3.307-3.307h51.37l.014.001.003-.001a3.311 3.311 0 0 1 3.301 3.307v6.086h-28.998a4.249 4.249 0 0 0-4.25 4.25 4.249 4.249 0 0 0 4.25 4.25h28.998v11.855a3.311 3.311 0 0 1-3.307 3.307z"/></svg>