<svg xmlns="http://www.w3.org/2000/svg" viewBox="0 0 63.983 63.983"><g fill="#010002"><path d="M45.957 18.065c-.008-.012-.016-.019-.023-.028a8.972 8.972 0 0 0-2.06-2.299v7.586l3.431 5.059c.955 1.352.879 4.329 0 6.336l-.199-4.297-4.406-6.749V14.95a8.942 8.942 0 0 0-1.605-.7v4.705h-5.516v-4.702a8.793 8.793 0 0 0-1.606.701v8.721l-4.41 6.749-.198 30.266c0 1.817 1.475 3.293 3.292 3.293s3.293-1.476 3.293-3.293c0 0 1.563-21.543 2.383-21.543.815 0 2.332 21.543 2.332 21.543a3.293 3.293 0 0 0 6.585 0l.029-21.433c1.006.484 2.359.42 3.217-.69 4.219-5.471-.887-15.654-4.539-20.502zm-9.223 9.022a1.029 1.029 0 1 1 .003-2.057 1.029 1.029 0 0 1-.003 2.057zm3.198 0a1.03 1.03 0 0 1 0-2.059 1.03 1.03 0 1 1 0 2.059z"/><path d="M32.794 23.323v-7.581c-.949.749-8.955 11.645-9.261 12.262-1.37.389-2.756.708-4.15.998V23c3.465-.329 6.185-3.252 6.185-6.802v-5.414h-1.176v5.414a5.662 5.662 0 0 1-2.822 4.89V10.775h-1.176v10.833c-.855.267-2.322.283-3.234.024v-10.86h-1.175v10.369a5.663 5.663 0 0 1-2.912-4.943v-5.414h-1.176v5.414c0 3.578 2.765 6.518 6.271 6.807v6.245l-.062.012c-2.533.506-1.986 3.862.062 4.48V63.98h1.214V33.793c2.239-.447 4.467-.921 6.644-1.624 1.288-.418 2.224-1.86 6.768-8.846zM36.164 18.366h4.338v-4.283a8.877 8.877 0 0 0-4.338.001v4.282zM33.676 9.07c.264 2.452 2.25 4.365 4.657 4.365 2.408 0 4.396-1.914 4.658-4.365 2.662-.373 4.383-2.269 4.461-2.359a1.235 1.235 0 0 0-1.844-1.642c-.016.015-1.213 1.31-2.947 1.556a5.024 5.024 0 0 0-.428-.828c.007-.017-.598-5.429-.598-5.429 0-.203-.221-.368-.49-.368h-5.996c-.271 0-.491.165-.491.368 0 0-.437 5.574-.349 5.64a5.067 5.067 0 0 0-.303.619c-1.724-.247-2.915-1.523-2.947-1.557a1.235 1.235 0 0 0-1.845 1.641c.081.09 1.8 1.986 4.462 2.359zm1.25-2.956h6.816c.111.176.208.363.293.555h-7.404c.088-.191.181-.379.295-.555zm7.464 3.011c-.28 2.1-1.992 3.721-4.06 3.721-2.063 0-3.772-1.621-4.056-3.721.103.005 8.018.005 8.116 0z"/></g></svg>