<svg xmlns="http://www.w3.org/2000/svg" viewBox="0 0 460 460"><path d="M355.042 410H300l7.236-14.472A10 10 0 0 1 316.18 390c2.662 0 4.472-2.702 3.458-5.164L276.471 280H260v-40h80v71.989a200.02 200.02 0 0 0 7.695 54.945l10.943 38.299c.682 2.389-1.111 4.767-3.596 4.767zM210 240v40l-29.106 126.124a5 5 0 0 1-4.872 3.876H130l7.236-14.472A10 10 0 0 1 146.18 390a3.82 3.82 0 0 0 3.82-3.82V240h60z" fill="#756f64"/><path d="M460 220l-13.416 26.833a59.966 59.966 0 0 1-27.127 26.973l-3.425 23.974a200.011 200.011 0 0 0 5.685 83.229l6.921 24.224c.683 2.389-1.111 4.767-3.596 4.767H370l7.236-14.472A10 10 0 0 1 386.18 390c2.662 0 4.472-2.702 3.458-5.164L346.471 280H240l-29.106 126.124a5 5 0 0 1-4.872 3.876H160l7.236-14.472A10 10 0 0 1 176.18 390a3.82 3.82 0 0 0 3.82-3.82V279.321a74.74 74.74 0 0 1-52.188-32.603l-34.843-52.265A10 10 0 0 0 84.648 190H10c-5.523 0-10-4.477-10-10v-6.459a20.002 20.002 0 0 1 12.572-18.57l37.123-14.849a3.242 3.242 0 0 0 2.038-3.011 118.16 118.16 0 0 1 82.507-55.86l61.042-9.846c3.837-.619 6.882 3.185 5.439 6.793l-4.858 12.145c-2.187 5.466.799 11.629 6.444 13.302l219.342 64.99C444.395 175.376 460 196.275 460 220z" fill="#eadcb9"/><path d="M460 220v145c0 4.805-6.117 6.844-9 3a105.002 105.002 0 0 1-21-63V180l30 40z" fill="#756f64"/><path d="M460 336.046V365c0 4.805-6.117 6.844-9 3a104.981 104.981 0 0 1-20.388-51.868c4.464 8.106 10.285 15.811 17.388 22.914 3.844 3.844 12 1.805 12-3z" fill="#66625a"/><path d="M460 220l-13.416 26.833a59.966 59.966 0 0 1-27.127 26.973l-3.425 23.974a200.011 200.011 0 0 0 5.685 83.229l6.921 24.224c.683 2.389-1.111 4.767-3.596 4.767H370l7.236-14.472A10 10 0 0 1 386.18 390c2.662 0 4.472-2.702 3.458-5.164L346.471 280h-.137l-11.254-27.561A20 20 0 0 0 316.564 240a54.281 54.281 0 0 0-30.052 9.078L240 280l-29.106 126.124a5 5 0 0 1-4.872 3.876H160l7.236-14.472A10 10 0 0 1 176.18 390a3.82 3.82 0 0 0 3.82-3.82V279.321a74.74 74.74 0 0 1-52.188-32.603L117.5 231.25l.094.141a122.14 122.14 0 0 0 32.223-41.94l6.85 20.549C175.076 210 190 195.076 190 176.667v-8.333a8.333 8.333 0 0 0-8.333-8.333H5.282a19.97 19.97 0 0 1 7.29-5.029l37.123-14.849a3.242 3.242 0 0 0 2.038-3.011 118.16 118.16 0 0 1 82.507-55.86l61.042-9.846c3.837-.619 6.882 3.185 5.439 6.793l-4.858 12.145c-2.187 5.466.799 11.629 6.444 13.302l219.342 64.99C444.395 175.376 460 196.275 460 220z" fill="#bcb4a0"/><path d="M140 90h-30l8.787-35.149a6.404 6.404 0 0 1 12.426 0L140 90z" fill="#756f64"/><path d="M460 220l-13.416 26.833c-5.981 11.961-15.643 21.316-27.209 27.001v-2.584L430 250c0-23.725-15.605-44.623-38.352-51.363l-219.342-64.99c-5.645-1.673-8.63-7.836-6.444-13.302l4.858-12.145c1.443-3.609-1.602-7.412-5.439-6.793l-61.042 9.846a118.101 118.101 0 0 0-48.373 19.466 118.156 118.156 0 0 1 78.373-49.466l8.281-1.336 6.206-24.822c.652-2.608 2.768-4.695 5.434-5.04a6.405 6.405 0 0 1 7.052 4.796l5.299 21.196 28.77-4.64c3.837-.619 6.882 3.185 5.439 6.793l-4.858 12.145c-2.187 5.466.799 11.629 6.444 13.302l219.342 64.99C444.395 175.376 460 196.275 460 220z" fill="#999485"/><path d="M162.5 90h-15l4.394-17.575a3.202 3.202 0 0 1 6.212 0L162.5 90z" fill="#756f64"/><path d="M190 168.333v8.333c0 18.41-14.924 33.334-33.333 33.334l-6.85-20.549a122.14 122.14 0 0 1-32.223 41.94l-24.625-36.938a10 10 0 0 0-8.32-4.453H10c-5.523 0-10-4.477-10-10v-6.459c0-5.124 1.955-9.923 5.282-13.541h176.385a8.333 8.333 0 0 1 8.333 8.333zM335.079 252.439A20 20 0 0 0 316.563 240a54.281 54.281 0 0 0-30.052 9.078L240 280h106.333l-11.254-27.561z" fill="#eadcb9"/><path d="M20 152v8c0 5.523-4.477 10-10 10H.328a19.994 19.994 0 0 1 12.244-15.029L20 152zM100 130v10H90c0-5.523 4.477-10 10-10z" fill="#49463e"/><path d="M20 152v8H5.287a19.922 19.922 0 0 1 7.285-5.029L20 152z" fill="#66625a"/></svg>